<?xml version="1.0" encoding="UTF-8"?>
<!-- Generated by @neplex/vectorizer (Using visioncortex VTracer) -->
<svg version="1.1" xmlns="http://www.w3.org/2000/svg" width="1320" height="1056">
<path d="M0,0 L4,2 L10,11 L16,16 L26,20 L27,24 L17,31 L13,32 L11,37 L10,41 L13,46 L13,48 L18,50 L23,49 L38,34 L43,31 L51,32 L67,39 L78,46 L88,54 L97,61 L104,69 L111,79 L113,84 L125,91 L139,101 L151,118 L157,133 L157,146 L153,152 L145,159 L138,166 L136,166 L136,168 L134,168 L132,173 L121,184 L117,192 L117,199 L118,200 L134,199 L163,202 L180,207 L196,215 L206,221 L216,229 L226,236 L237,245 L249,255 L259,261 L273,266 L277,267 L301,267 L312,262 L318,258 L322,249 L322,237 L318,231 L307,224 L294,220 L283,218 L265,216 L253,213 L235,206 L223,201 L218,197 L216,187 L209,179 L200,169 L196,160 L191,152 L191,150 L189,150 L185,143 L183,138 L182,137 L182,128 L187,123 L193,121 L238,121 L250,119 L258,114 L261,111 L264,106 L273,96 L284,87 L291,84 L301,81 L317,79 L325,76 L329,68 L331,63 L339,56 L347,52 L357,52 L371,53 L381,49 L386,48 L397,48 L409,51 L418,56 L423,60 L430,71 L433,81 L434,102 L443,108 L459,120 L468,131 L478,145 L488,162 L497,182 L499,187 L495,193 L497,198 L503,207 L512,224 L522,249 L522,253 L515,253 L514,258 L523,273 L529,289 L533,304 L533,313 L529,313 L525,311 L521,312 L521,319 L522,321 L523,355 L520,371 L518,385 L514,401 L516,412 L520,414 L530,422 L538,429 L553,444 L560,454 L565,462 L571,481 L576,494 L584,504 L595,512 L596,514 L596,521 L590,531 L583,535 L576,539 L575,541 L575,548 L583,556 L597,565 L611,573 L617,580 L622,591 L627,611 L629,623 L630,662 L626,682 L619,699 L614,707 L610,714 L605,720 L598,726 L595,729 L589,733 L588,735 L582,736 L581,738 L577,741 L565,744 L568,753 L575,760 L582,770 L589,784 L591,791 L592,804 L590,810 L586,812 L583,812 L581,816 L573,818 L566,824 L563,824 L561,829 L555,836 L553,836 L552,840 L541,861 L538,867 L532,874 L526,879 L516,883 L508,885 L488,885 L478,882 L468,877 L461,870 L452,853 L450,844 L450,833 L453,824 L456,819 L463,813 L479,808 L489,810 L498,815 L504,822 L507,828 L507,834 L502,842 L497,846 L487,846 L482,841 L478,839 L476,838 L476,840 L472,840 L473,847 L475,852 L481,859 L484,862 L493,865 L501,865 L509,862 L518,855 L523,843 L524,832 L522,819 L519,811 L510,801 L506,797 L493,791 L488,790 L474,790 L462,794 L456,798 L453,801 L448,805 L441,814 L438,821 L436,821 L435,825 L432,834 L428,838 L424,848 L420,855 L410,872 L407,877 L405,878 L404,883 L399,888 L390,896 L385,899 L375,906 L360,911 L351,913 L340,914 L336,915 L323,915 L293,910 L274,904 L259,896 L247,890 L238,884 L235,884 L232,887 L230,900 L224,911 L219,916 L213,924 L205,928 L184,935 L174,935 L161,932 L152,927 L143,920 L134,909 L130,903 L130,901 L118,907 L105,915 L86,923 L66,929 L55,932 L18,937 L13,940 L9,941 L6,944 L-2,950 L-9,952 L-14,952 L-23,944 L-31,939 L-34,938 L-59,935 L-75,931 L-98,925 L-114,918 L-123,914 L-132,908 L-140,902 L-146,902 L-150,907 L-156,916 L-163,922 L-166,925 L-176,930 L-191,934 L-204,934 L-220,930 L-228,924 L-238,915 L-243,909 L-247,900 L-249,892 L-251,885 L-252,883 L-257,885 L-277,896 L-302,906 L-324,912 L-340,914 L-360,914 L-383,909 L-397,903 L-402,899 L-410,895 L-415,890 L-422,882 L-428,873 L-435,861 L-446,838 L-454,821 L-462,807 L-469,800 L-473,795 L-483,789 L-490,787 L-502,786 L-516,789 L-525,794 L-526,796 L-530,798 L-533,802 L-537,806 L-538,808 L-540,808 L-543,818 L-544,835 L-542,844 L-538,854 L-537,857 L-532,859 L-521,864 L-513,864 L-501,858 L-492,847 L-491,845 L-491,838 L-494,836 L-501,837 L-509,844 L-518,844 L-523,839 L-526,835 L-526,824 L-522,817 L-517,811 L-506,807 L-502,806 L-493,806 L-481,810 L-475,817 L-471,823 L-469,829 L-469,838 L-470,848 L-477,861 L-484,870 L-487,873 L-489,873 L-489,875 L-499,880 L-510,883 L-520,884 L-536,882 L-545,879 L-549,876 L-549,874 L-553,872 L-559,865 L-567,851 L-573,840 L-578,830 L-584,825 L-584,823 L-588,821 L-595,815 L-605,810 L-613,807 L-615,804 L-614,790 L-609,776 L-604,768 L-600,761 L-596,756 L-588,749 L-585,748 L-585,742 L-590,740 L-590,738 L-598,736 L-609,730 L-621,721 L-626,715 L-629,712 L-637,699 L-648,673 L-649,665 L-651,665 L-651,622 L-649,619 L-649,612 L-647,610 L-646,604 L-638,581 L-631,571 L-623,566 L-607,558 L-593,547 L-589,542 L-589,534 L-599,531 L-609,526 L-612,518 L-612,509 L-608,505 L-597,498 L-591,491 L-587,482 L-583,471 L-580,461 L-577,456 L-573,449 L-565,440 L-557,430 L-549,423 L-542,416 L-534,410 L-526,404 L-524,404 L-524,397 L-530,376 L-533,347 L-534,336 L-533,319 L-531,318 L-531,304 L-537,304 L-541,306 L-544,306 L-543,297 L-541,294 L-540,288 L-536,289 L-534,272 L-525,253 L-520,248 L-521,243 L-530,244 L-529,239 L-524,234 L-521,228 L-519,217 L-516,212 L-514,206 L-504,189 L-502,188 L-503,182 L-504,179 L-501,179 L-500,174 L-492,152 L-489,147 L-487,147 L-485,142 L-474,126 L-466,118 L-462,113 L-448,103 L-437,95 L-436,94 L-435,73 L-431,63 L-426,55 L-421,51 L-407,44 L-403,43 L-389,43 L-376,47 L-372,49 L-365,48 L-350,48 L-340,53 L-331,62 L-329,72 L-319,75 L-299,79 L-286,84 L-273,94 L-261,110 L-253,115 L-244,118 L-206,119 L-191,120 L-185,124 L-183,126 L-183,133 L-187,142 L-193,151 L-200,160 L-204,168 L-213,178 L-218,183 L-220,192 L-227,198 L-246,205 L-253,208 L-262,211 L-276,213 L-294,215 L-308,218 L-320,224 L-326,232 L-327,238 L-326,245 L-322,251 L-317,256 L-309,260 L-300,262 L-281,262 L-272,260 L-260,255 L-250,248 L-240,240 L-225,229 L-210,219 L-191,208 L-176,202 L-163,199 L-151,198 L-149,197 L-120,197 L-118,192 L-122,184 L-134,168 L-140,163 L-140,161 L-144,159 L-156,150 L-159,144 L-159,137 L-155,125 L-148,110 L-141,102 L-131,93 L-122,87 L-114,83 L-106,70 L-94,58 L-83,49 L-73,42 L-56,33 L-48,31 L-41,31 L-33,37 L-22,46 L-19,50 L-15,50 L-11,44 L-9,39 L-12,33 L-16,30 L-23,26 L-25,24 L-24,20 L-12,14 L-5,7 L-2,1 Z M-404,53 L-415,59 L-423,69 L-425,78 L-425,91 L-421,99 L-420,101 L-433,106 L-449,117 L-456,123 L-462,131 L-469,139 L-477,153 L-481,159 L-482,160 L-482,166 L-481,168 L-474,167 L-477,172 L-485,180 L-493,192 L-497,198 L-505,214 L-507,216 L-507,221 L-503,225 L-494,222 L-484,219 L-484,222 L-488,224 L-495,233 L-500,238 L-500,240 L-502,240 L-507,248 L-507,250 L-510,251 L-522,273 L-525,278 L-524,282 L-520,283 L-514,279 L-506,275 L-509,282 L-513,290 L-517,300 L-519,310 L-520,329 L-520,349 L-516,373 L-512,392 L-509,402 L-513,411 L-517,414 L-517,416 L-521,418 L-524,421 L-533,426 L-543,434 L-543,436 L-545,436 L-550,441 L-555,445 L-561,453 L-563,458 L-565,458 L-570,469 L-574,484 L-580,498 L-588,505 L-596,509 L-598,512 L-597,518 L-591,523 L-582,524 L-572,523 L-572,532 L-576,544 L-584,556 L-591,562 L-591,564 L-595,566 L-609,575 L-614,578 L-616,579 L-616,581 L-621,583 L-621,587 L-623,587 L-626,596 L-631,619 L-633,626 L-634,640 L-634,658 L-633,667 L-630,677 L-627,687 L-622,695 L-615,703 L-610,707 L-605,713 L-593,720 L-575,726 L-554,730 L-545,729 L-538,723 L-534,717 L-525,711 L-519,703 L-509,698 L-502,689 L-499,686 L-496,680 L-492,674 L-491,671 L-491,663 L-495,660 L-508,660 L-519,662 L-534,662 L-543,659 L-548,653 L-549,645 L-545,635 L-540,629 L-528,623 L-514,619 L-485,615 L-478,614 L-476,618 L-469,617 L-459,609 L-452,601 L-449,595 L-449,593 L-447,593 L-446,598 L-443,599 L-436,593 L-434,590 L-432,584 L-426,574 L-422,561 L-420,556 L-417,541 L-415,529 L-414,523 L-414,505 L-415,500 L-412,499 L-410,508 L-409,517 L-409,525 L-405,527 L-399,520 L-396,515 L-393,506 L-393,485 L-390,486 L-385,497 L-382,504 L-379,506 L-375,502 L-373,495 L-373,489 L-378,480 L-383,475 L-388,470 L-398,463 L-403,459 L-407,460 L-409,465 L-410,467 L-418,461 L-427,454 L-435,444 L-440,436 L-444,430 L-448,421 L-449,420 L-456,420 L-464,410 L-472,399 L-479,387 L-485,368 L-490,343 L-490,335 L-491,327 L-489,319 L-488,310 L-486,323 L-485,333 L-480,350 L-478,359 L-470,378 L-463,390 L-460,392 L-456,391 L-453,388 L-453,378 L-450,381 L-446,398 L-439,411 L-432,424 L-424,434 L-418,435 L-416,433 L-417,424 L-415,424 L-413,430 L-407,438 L-403,443 L-393,449 L-384,456 L-373,460 L-368,459 L-369,452 L-360,457 L-354,461 L-340,464 L-334,465 L-320,465 L-318,464 L-317,458 L-307,459 L-297,457 L-283,452 L-269,445 L-269,443 L-264,441 L-250,429 L-244,425 L-240,421 L-232,415 L-225,409 L-223,406 L-224,398 L-229,388 L-236,382 L-244,378 L-259,374 L-274,374 L-291,380 L-301,386 L-312,391 L-319,392 L-330,392 L-337,389 L-345,384 L-350,379 L-358,363 L-365,335 L-371,310 L-379,291 L-386,281 L-394,271 L-401,263 L-411,255 L-414,253 L-409,254 L-394,262 L-384,271 L-379,276 L-377,276 L-375,281 L-368,291 L-361,305 L-355,325 L-351,341 L-346,358 L-340,369 L-333,377 L-328,376 L-327,375 L-327,367 L-328,363 L-328,356 L-326,346 L-326,333 L-325,330 L-325,316 L-322,319 L-317,334 L-314,346 L-309,345 L-307,341 L-307,317 L-312,301 L-316,292 L-323,280 L-333,265 L-337,259 L-343,246 L-344,236 L-342,229 L-337,221 L-330,215 L-320,209 L-309,206 L-293,205 L-288,204 L-269,203 L-256,200 L-241,195 L-232,192 L-230,190 L-230,185 L-233,183 L-254,185 L-275,185 L-286,183 L-292,179 L-293,176 L-291,175 L-283,175 L-267,178 L-258,178 L-253,177 L-237,177 L-225,175 L-217,170 L-210,160 L-210,154 L-217,147 L-218,143 L-208,147 L-202,145 L-196,137 L-195,131 L-198,128 L-201,127 L-211,127 L-222,128 L-244,127 L-262,123 L-272,114 L-273,112 L-275,112 L-277,107 L-284,98 L-294,91 L-310,86 L-321,84 L-335,83 L-362,83 L-365,79 L-368,67 L-375,58 L-384,53 Z M-359,55 L-362,59 L-361,66 L-355,74 L-353,75 L-341,75 L-338,72 L-338,66 L-343,61 L-349,56 L-351,55 Z M-52,56 L-65,63 L-75,70 L-75,72 L-77,72 L-77,74 L-80,75 L-89,86 L-88,92 L-81,101 L-78,106 L-72,115 L-62,130 L-55,143 L-51,152 L-48,157 L-44,158 L-35,151 L-25,148 L-25,154 L-28,163 L-23,171 L-15,177 L-6,182 L1,182 L17,176 L25,168 L27,160 L24,153 L19,148 L12,147 L4,150 L3,152 L3,160 L-6,158 L-9,157 L-9,149 L-16,141 L-17,137 L-11,133 L-9,131 L-6,122 L-3,120 L2,120 L5,129 L8,132 L18,132 L24,128 L27,123 L27,114 L23,107 L16,103 L4,97 L0,96 L-10,101 L-21,105 L-25,110 L-28,116 L-27,121 L-26,127 L-32,128 L-39,125 L-44,120 L-45,116 L-45,108 L-41,98 L-34,92 L-25,88 L-22,85 L-22,79 L-38,62 L-46,56 Z M47,57 L41,61 L31,70 L26,77 L26,79 L22,81 L20,84 L22,88 L33,94 L41,103 L44,110 L44,125 L40,133 L38,137 L36,137 L35,142 L41,148 L43,155 L45,157 L49,156 L52,152 L56,142 L62,131 L68,123 L75,112 L78,107 L81,104 L87,96 L89,93 L88,87 L82,79 L72,69 L64,63 L53,57 Z M387,58 L379,60 L372,64 L368,69 L364,80 L362,87 L360,88 L320,88 L308,90 L295,93 L285,99 L276,108 L268,119 L261,125 L255,128 L240,130 L221,130 L203,128 L195,131 L194,132 L194,138 L197,144 L202,148 L208,148 L215,146 L213,151 L208,156 L209,163 L215,172 L221,177 L231,180 L242,181 L267,181 L279,178 L286,178 L289,181 L287,185 L284,187 L278,188 L253,188 L236,186 L231,186 L228,189 L228,195 L235,198 L252,203 L264,207 L280,208 L285,209 L301,210 L313,213 L324,220 L334,229 L338,235 L339,240 L339,248 L333,263 L327,271 L318,284 L308,301 L302,316 L300,331 L300,340 L302,350 L306,351 L308,350 L312,333 L316,324 L319,322 L318,325 L319,333 L319,354 L320,357 L320,371 L318,378 L319,381 L323,383 L331,376 L335,371 L342,353 L349,332 L356,308 L362,297 L370,286 L370,284 L372,284 L379,276 L388,269 L403,261 L406,261 L406,263 L395,270 L387,278 L378,290 L371,301 L367,309 L362,322 L358,339 L352,362 L347,374 L337,388 L323,395 L319,396 L311,396 L300,393 L283,384 L277,380 L263,377 L242,379 L233,383 L225,388 L218,396 L216,401 L216,408 L221,416 L231,421 L244,432 L255,441 L265,448 L280,455 L291,460 L303,460 L309,459 L308,466 L310,467 L328,467 L341,465 L354,458 L359,455 L359,460 L364,463 L380,456 L394,446 L402,437 L405,429 L408,428 L406,436 L408,439 L415,438 L425,424 L430,417 L438,397 L440,391 L442,391 L445,397 L450,398 L454,394 L463,378 L472,357 L476,337 L477,325 L480,326 L481,341 L480,346 L479,360 L472,384 L464,401 L456,412 L450,419 L447,423 L438,425 L431,438 L421,451 L412,461 L404,467 L402,469 L398,470 L398,464 L396,462 L391,463 L377,473 L369,480 L364,486 L362,494 L363,501 L367,508 L372,508 L376,493 L380,487 L382,486 L381,490 L382,508 L386,519 L392,527 L396,527 L398,522 L398,513 L400,505 L404,504 L402,510 L401,526 L403,530 L406,552 L414,578 L422,593 L427,599 L432,598 L435,596 L437,602 L439,602 L441,607 L453,618 L458,621 L462,619 L464,617 L472,617 L501,622 L516,627 L525,633 L530,641 L531,644 L531,654 L526,663 L515,666 L502,665 L491,663 L478,663 L475,666 L474,670 L477,678 L482,687 L485,691 L487,691 L489,696 L494,702 L502,706 L508,715 L516,721 L518,721 L520,726 L524,731 L528,733 L539,733 L559,729 L576,723 L587,716 L588,713 L592,711 L596,707 L596,705 L600,703 L608,689 L613,674 L615,664 L615,629 L613,617 L611,608 L610,607 L608,597 L603,585 L593,579 L584,574 L577,568 L572,563 L570,560 L568,560 L566,556 L562,550 L559,544 L557,535 L556,529 L558,527 L558,524 L565,527 L573,527 L581,523 L583,520 L582,514 L573,509 L567,504 L562,494 L557,478 L554,469 L551,462 L544,454 L539,449 L526,435 L518,429 L504,419 L500,412 L500,403 L506,383 L510,360 L510,327 L509,313 L508,312 L506,302 L500,290 L499,287 L504,288 L511,292 L516,291 L516,285 L509,274 L506,270 L502,261 L495,249 L486,238 L481,233 L479,229 L488,231 L495,234 L500,233 L501,228 L497,220 L488,204 L484,196 L477,185 L472,180 L471,176 L477,176 L478,170 L465,148 L453,132 L445,124 L439,122 L437,118 L432,114 L418,107 L419,102 L422,96 L422,84 L421,75 L412,64 L403,59 L398,58 Z M353,59 L344,62 L337,70 L338,77 L341,79 L351,79 L356,75 L360,68 L360,62 L358,59 Z M-109,106 L-119,111 L-126,117 L-126,119 L-129,120 L-134,129 L-135,138 L-128,146 L-118,156 L-111,164 L-105,171 L-99,172 L-75,165 L-72,162 L-72,155 L-79,145 L-84,136 L-90,128 L-93,123 L-101,112 L-105,107 Z M107,109 L102,112 L92,125 L80,142 L73,155 L70,160 L72,164 L79,168 L90,171 L98,174 L105,173 L111,164 L119,157 L129,148 L135,138 L135,133 L129,124 L117,111 L114,109 Z M-56,181 L-83,187 L-92,190 L-96,193 L-96,216 L-94,218 L-71,217 L-55,215 L-39,214 L-19,214 L50,215 L59,217 L83,220 L92,220 L96,217 L97,209 L95,196 L93,192 L87,189 L72,185 L55,182 L39,182 L33,186 L27,191 L20,194 L7,198 L-2,202 L-7,201 L-19,195 L-33,189 L-42,182 L-45,181 Z M-143,208 L-162,210 L-183,217 L-191,221 L-203,228 L-218,239 L-229,249 L-237,256 L-245,265 L-247,266 L-247,268 L-257,268 L-271,273 L-277,275 L-291,276 L-303,275 L-306,277 L-306,282 L-301,289 L-295,306 L-294,312 L-294,338 L-296,347 L-300,354 L-301,360 L-298,363 L-293,361 L-277,352 L-265,341 L-259,337 L-251,330 L-244,322 L-241,320 L-242,325 L-240,327 L-236,326 L-228,318 L-220,311 L-215,305 L-209,297 L-204,287 L-200,276 L-197,272 L-197,270 L-194,270 L-192,275 L-186,272 L-178,266 L-178,264 L-174,262 L-168,257 L-165,248 L-163,236 L-160,233 L-151,230 L-145,226 L-128,221 L-120,216 L-120,211 L-123,209 L-128,208 Z M125,210 L119,213 L118,217 L123,221 L128,224 L146,230 L151,234 L158,236 L161,241 L162,249 L163,257 L168,264 L174,268 L184,277 L190,276 L193,275 L195,280 L200,292 L206,303 L214,314 L221,322 L226,326 L231,332 L235,331 L237,328 L241,330 L251,340 L262,348 L268,353 L276,359 L286,365 L289,366 L294,363 L293,358 L291,353 L289,345 L286,337 L286,327 L290,309 L296,294 L300,287 L300,282 L299,281 L275,280 L257,274 L256,273 L250,273 L246,274 L238,266 L231,258 L226,253 L216,245 L211,240 L203,234 L193,227 L184,221 L160,212 L149,210 Z M-113,222 L-123,228 L-132,231 L-133,233 L-143,235 L-147,240 L-157,242 L-158,247 L-155,253 L-147,258 L-141,259 L-139,257 L-140,250 L-135,252 L-130,251 L-128,247 L-124,248 L-121,250 L-116,249 L-115,245 L-117,241 L-110,244 L-106,243 L-105,242 L-106,235 L-100,236 L-98,234 L-98,229 L-103,223 L-105,222 Z M105,224 L98,228 L93,235 L95,240 L97,241 L101,240 L100,247 L102,249 L107,248 L108,246 L111,247 L110,252 L113,255 L118,254 L123,248 L125,247 L124,255 L126,257 L131,256 L135,253 L136,260 L138,262 L145,261 L151,256 L153,252 L152,247 L147,244 L142,242 L137,238 L130,237 L126,233 L119,231 L109,224 Z M-39,236 L-51,239 L-59,243 L-68,252 L-84,260 L-104,266 L-117,268 L-134,270 L-157,275 L-172,283 L-181,291 L-188,300 L-195,314 L-198,325 L-198,352 L-189,359 L-185,365 L-182,371 L-183,372 L-182,382 L-188,384 L-196,392 L-195,398 L-193,399 L-182,400 L-176,403 L-172,406 L-167,406 L-165,403 L-165,372 L-166,369 L-166,348 L-165,339 L-160,327 L-156,318 L-149,311 L-137,305 L-123,302 L-106,301 L-83,297 L-62,290 L-52,284 L-42,277 L-35,271 L-25,258 L-17,242 L-18,237 L-19,236 Z M18,237 L15,240 L19,253 L26,263 L34,273 L42,280 L56,289 L67,294 L82,299 L99,302 L128,306 L139,310 L147,315 L151,320 L157,330 L159,343 L159,405 L162,408 L167,407 L173,403 L189,399 L190,393 L182,386 L176,384 L177,377 L178,369 L188,358 L193,354 L194,348 L193,346 L192,324 L187,310 L182,301 L171,289 L160,281 L154,278 L141,274 L128,271 L111,269 L95,266 L84,262 L75,259 L66,252 L60,247 L55,241 L39,237 Z M-3,240 L-6,247 L-14,263 L-22,276 L-27,281 L-33,286 L-37,290 L-48,296 L-62,303 L-86,310 L-105,313 L-123,315 L-133,317 L-142,322 L-148,332 L-151,342 L-152,368 L-152,434 L-150,448 L-150,468 L-149,473 L-150,489 L-151,491 L-152,505 L-153,508 L-156,535 L-157,538 L-157,555 L-156,561 L-155,572 L-153,582 L-146,597 L-139,605 L-130,612 L-118,619 L-101,624 L-78,629 L-65,632 L-49,636 L-35,639 L-15,646 L-9,650 L0,650 L14,643 L33,637 L59,632 L76,628 L93,625 L111,619 L122,613 L134,602 L138,595 L142,586 L147,569 L148,558 L149,553 L149,543 L146,516 L143,492 L142,490 L142,481 L143,476 L142,454 L144,450 L146,434 L147,396 L146,384 L146,375 L147,372 L147,350 L143,332 L136,324 L130,319 L123,317 L111,315 L95,313 L70,308 L53,302 L39,294 L30,287 L22,278 L17,274 L5,251 L1,241 Z M-219,324 L-224,328 L-229,333 L-236,337 L-237,339 L-243,342 L-253,348 L-262,352 L-268,358 L-268,360 L-270,360 L-273,363 L-272,368 L-271,369 L-262,368 L-256,364 L-252,360 L-240,352 L-232,349 L-220,348 L-218,349 L-215,343 L-215,327 L-217,324 Z M212,328 L209,330 L209,348 L213,352 L226,352 L239,359 L252,368 L258,372 L264,372 L266,370 L266,365 L261,361 L259,361 L257,357 L250,352 L243,349 L232,342 L225,336 L215,328 Z M-231,355 L-239,358 L-245,361 L-245,368 L-237,372 L-225,376 L-218,384 L-215,390 L-211,392 L-202,385 L-198,381 L-197,377 L-198,369 L-205,365 L-207,361 L-213,357 L-214,356 Z M216,357 L201,360 L195,363 L189,373 L189,382 L197,390 L201,395 L207,394 L220,380 L234,374 L237,371 L237,364 L226,358 Z M-198,412 L-207,415 L-210,418 L-212,421 L-211,426 L-206,429 L-194,434 L-189,438 L-182,451 L-179,459 L-181,459 L-183,455 L-196,442 L-207,436 L-223,436 L-236,440 L-245,447 L-253,458 L-256,469 L-255,478 L-252,488 L-244,497 L-239,501 L-234,502 L-218,502 L-210,499 L-204,492 L-202,484 L-202,477 L-204,472 L-212,465 L-221,466 L-225,470 L-227,474 L-227,479 L-231,477 L-232,475 L-232,468 L-229,462 L-224,458 L-216,456 L-206,457 L-200,461 L-195,467 L-190,483 L-190,502 L-192,515 L-192,539 L-195,537 L-200,523 L-208,514 L-213,512 L-228,512 L-237,517 L-241,523 L-240,531 L-238,535 L-222,541 L-217,546 L-213,554 L-209,564 L-207,574 L-205,585 L-203,594 L-198,608 L-193,618 L-186,629 L-171,644 L-165,648 L-150,655 L-139,659 L-120,665 L-97,670 L-77,675 L-61,680 L-45,687 L-33,693 L-28,698 L-15,709 L-11,715 L-7,717 L0,716 L7,707 L14,700 L22,694 L43,683 L56,678 L76,673 L113,665 L124,662 L137,657 L149,651 L165,640 L172,633 L177,627 L181,620 L184,615 L190,601 L193,592 L196,581 L201,558 L209,544 L212,541 L220,538 L227,536 L231,531 L232,522 L225,514 L220,512 L207,511 L199,514 L194,518 L190,525 L186,533 L186,537 L183,537 L183,524 L184,519 L183,499 L182,493 L182,484 L187,469 L194,461 L201,457 L210,457 L220,461 L223,465 L224,474 L221,479 L219,479 L217,469 L212,466 L205,465 L198,469 L195,473 L194,476 L194,487 L196,492 L200,497 L205,501 L208,502 L227,502 L237,497 L242,492 L246,482 L248,476 L248,469 L245,459 L239,450 L232,444 L218,437 L201,437 L190,441 L180,450 L176,455 L176,457 L173,457 L174,452 L181,441 L190,433 L204,428 L206,425 L205,420 L199,415 L193,413 L184,414 L173,420 L170,423 L170,425 L168,425 L164,433 L161,442 L158,458 L158,500 L160,513 L161,524 L162,527 L163,541 L164,549 L162,561 L162,570 L157,588 L153,598 L142,612 L135,619 L122,627 L103,635 L75,641 L52,646 L26,654 L10,661 L-6,668 L-13,665 L-23,660 L-42,652 L-66,645 L-106,636 L-120,632 L-133,626 L-143,620 L-156,610 L-163,600 L-167,591 L-172,571 L-172,557 L-173,556 L-173,547 L-172,544 L-171,527 L-167,509 L-165,493 L-165,457 L-169,437 L-175,425 L-186,415 L-194,412 Z M-275,461 L-285,465 L-287,466 L-287,468 L-289,468 L-288,475 L-278,483 L-274,487 L-269,487 L-267,482 L-268,479 L-269,463 L-270,461 Z M266,462 L261,465 L260,473 L259,486 L261,488 L266,487 L277,478 L280,473 L280,468 L272,463 Z M-318,485 L-340,492 L-346,497 L-351,500 L-358,507 L-366,514 L-376,528 L-377,532 L-381,534 L-384,540 L-387,547 L-378,560 L-376,567 L-376,582 L-378,593 L-380,597 L-380,600 L-382,600 L-388,609 L-393,614 L-397,619 L-398,622 L-398,629 L-393,642 L-389,653 L-383,665 L-379,670 L-377,670 L-375,674 L-369,681 L-353,688 L-347,690 L-333,691 L-279,691 L-276,688 L-276,676 L-273,673 L-267,671 L-262,659 L-258,654 L-256,647 L-253,638 L-250,631 L-251,625 L-257,622 L-274,622 L-305,626 L-313,626 L-316,624 L-315,618 L-303,604 L-294,593 L-283,578 L-277,566 L-275,547 L-269,548 L-268,546 L-268,530 L-272,516 L-281,499 L-289,492 L-298,487 L-308,485 Z M299,486 L287,489 L281,492 L276,496 L269,502 L260,521 L257,535 L257,548 L261,549 L266,545 L265,547 L266,564 L269,573 L280,589 L285,595 L291,603 L294,604 L296,608 L303,618 L304,626 L284,626 L267,623 L243,623 L240,624 L238,627 L239,634 L243,646 L245,648 L247,657 L251,659 L253,670 L261,675 L263,675 L264,682 L263,688 L267,692 L274,693 L330,693 L346,688 L355,683 L367,671 L371,664 L374,657 L379,647 L380,638 L383,635 L385,629 L385,623 L378,615 L370,605 L367,598 L365,597 L362,585 L362,577 L365,567 L368,564 L368,561 L370,561 L373,555 L379,548 L378,543 L369,530 L366,526 L364,526 L362,521 L356,513 L352,509 L347,507 L347,505 L336,497 L321,489 L308,486 Z M-246,548 L-246,550 L-249,552 L-254,570 L-258,576 L-261,579 L-268,580 L-272,585 L-272,587 L-274,587 L-283,598 L-283,601 L-287,603 L-290,607 L-294,609 L-295,614 L-293,617 L-271,616 L-261,615 L-248,618 L-239,621 L-212,621 L-211,620 L-212,613 L-216,604 L-220,588 L-220,577 L-221,575 L-222,564 L-226,555 L-229,552 L-242,548 Z M230,549 L218,552 L213,558 L211,566 L208,590 L203,608 L199,616 L199,621 L202,624 L219,621 L229,621 L239,617 L245,616 L264,616 L279,617 L281,614 L281,609 L276,604 L271,597 L266,592 L259,582 L257,580 L248,578 L244,570 L242,565 L240,552 L237,549 Z M-403,556 L-403,558 L-405,559 L-407,561 L-410,576 L-418,591 L-421,596 L-427,604 L-427,606 L-432,608 L-434,612 L-447,621 L-452,625 L-468,628 L-473,630 L-487,632 L-494,632 L-501,630 L-520,635 L-528,638 L-533,642 L-536,645 L-535,651 L-532,654 L-529,655 L-513,655 L-505,654 L-496,654 L-486,656 L-480,660 L-474,664 L-459,668 L-456,668 L-454,672 L-450,676 L-445,687 L-441,689 L-432,683 L-419,677 L-401,674 L-398,671 L-399,666 L-404,658 L-408,644 L-412,634 L-415,627 L-414,623 L-406,613 L-396,598 L-391,588 L-390,577 L-392,568 L-397,558 L-399,556 Z M389,557 L384,561 L378,573 L378,586 L384,602 L385,604 L387,604 L389,609 L400,624 L400,633 L395,645 L391,654 L388,664 L385,669 L385,675 L387,677 L402,679 L413,683 L419,686 L425,692 L430,690 L435,677 L444,670 L462,665 L465,663 L465,661 L469,659 L477,656 L491,656 L494,657 L511,658 L517,655 L519,652 L519,646 L513,641 L499,636 L488,633 L482,633 L476,635 L467,634 L448,629 L439,628 L433,624 L421,613 L419,613 L417,609 L409,600 L398,581 L395,569 L394,560 L392,557 Z M-238,629 L-240,631 L-241,637 L-244,640 L-243,648 L-248,650 L-249,657 L-248,661 L-254,663 L-256,665 L-257,674 L-265,678 L-267,681 L-266,687 L-263,690 L-260,691 L-233,690 L-230,687 L-232,683 L-235,681 L-236,678 L-225,681 L-220,680 L-221,673 L-229,668 L-227,666 L-221,666 L-214,667 L-213,662 L-220,656 L-223,654 L-224,651 L-219,650 L-212,652 L-209,650 L-210,645 L-214,642 L-220,640 L-218,638 L-214,636 L-216,631 L-222,629 Z M212,629 L203,633 L202,638 L207,639 L210,640 L203,643 L201,645 L201,650 L205,652 L212,651 L207,656 L204,660 L205,666 L210,665 L214,663 L220,662 L218,666 L211,672 L212,677 L217,678 L221,676 L227,675 L225,679 L220,684 L221,688 L222,689 L244,690 L250,687 L252,684 L252,678 L250,676 L240,675 L243,668 L242,663 L234,660 L235,656 L236,649 L231,646 L230,639 L227,635 L225,630 L223,629 Z M-535,643 Z M456,673 L446,677 L441,682 L440,688 L443,697 L447,698 L452,697 L451,702 L447,707 L448,712 L452,713 L462,707 L465,708 L466,712 L458,717 L456,723 L459,727 L464,726 L470,722 L477,721 L474,730 L476,732 L480,733 L497,734 L507,735 L510,732 L511,727 L508,723 L499,720 L495,720 L495,710 L493,708 L488,707 L481,707 L482,700 L477,696 L472,695 L473,685 L471,682 L468,681 L465,675 L463,673 Z M-475,673 L-481,675 L-484,680 L-487,683 L-490,689 L-495,691 L-498,695 L-499,700 L-511,705 L-514,709 L-515,715 L-524,719 L-528,723 L-527,728 L-520,732 L-499,734 L-494,731 L-494,726 L-499,721 L-499,718 L-492,719 L-481,725 L-476,724 L-474,722 L-475,717 L-479,712 L-482,710 L-482,708 L-480,707 L-473,707 L-469,710 L-464,709 L-463,704 L-468,698 L-470,697 L-469,693 L-460,694 L-459,689 L-461,686 L-459,680 L-462,677 L-472,673 Z M-144,677 L-156,680 L-169,687 L-175,694 L-182,700 L-190,713 L-193,722 L-198,732 L-203,745 L-205,746 L-205,738 L-199,716 L-191,700 L-190,694 L-191,693 L-198,693 L-219,697 L-230,701 L-240,708 L-247,718 L-252,728 L-259,740 L-266,751 L-273,761 L-281,771 L-289,779 L-299,786 L-299,788 L-305,789 L-314,795 L-335,803 L-355,806 L-382,806 L-395,803 L-401,803 L-401,805 L-403,805 L-402,811 L-392,830 L-385,839 L-375,849 L-362,858 L-345,864 L-331,866 L-322,866 L-305,863 L-289,858 L-277,853 L-277,856 L-286,859 L-300,866 L-319,872 L-332,874 L-348,874 L-370,869 L-382,862 L-392,854 L-401,846 L-414,827 L-422,811 L-429,795 L-438,781 L-448,768 L-454,764 L-459,760 L-468,754 L-480,748 L-488,745 L-513,742 L-525,742 L-540,744 L-550,747 L-557,750 L-565,752 L-564,754 L-571,757 L-579,763 L-585,769 L-585,771 L-587,771 L-591,778 L-594,783 L-596,789 L-596,795 L-587,801 L-578,806 L-571,815 L-568,820 L-563,821 L-560,816 L-556,804 L-550,794 L-541,785 L-528,777 L-513,773 L-491,773 L-476,777 L-462,787 L-456,792 L-447,806 L-441,819 L-435,834 L-423,855 L-417,863 L-408,874 L-401,880 L-395,884 L-393,884 L-393,886 L-379,893 L-363,898 L-356,899 L-332,899 L-307,894 L-288,886 L-275,879 L-262,870 L-251,861 L-245,856 L-240,851 L-228,837 L-216,820 L-211,810 L-207,805 L-196,782 L-191,772 L-183,754 L-176,739 L-170,724 L-165,716 L-158,706 L-146,700 L-143,699 L-133,699 L-123,701 L-114,709 L-111,716 L-111,726 L-115,733 L-119,736 L-128,737 L-132,733 L-133,730 L-131,725 L-132,718 L-136,716 L-143,717 L-150,722 L-150,724 L-152,724 L-156,731 L-156,740 L-152,750 L-147,755 L-136,761 L-130,762 L-118,762 L-109,759 L-96,751 L-89,739 L-87,731 L-87,714 L-92,698 L-98,690 L-108,683 L-121,678 L-125,677 Z M109,678 L100,682 L89,688 L82,696 L78,702 L76,710 L74,721 L76,737 L83,751 L94,758 L104,762 L121,762 L131,758 L139,751 L142,745 L144,734 L141,726 L136,720 L129,717 L122,718 L121,721 L118,721 L119,734 L111,738 L107,737 L102,735 L99,726 L99,716 L103,710 L103,708 L108,706 L119,701 L135,701 L144,706 L150,711 L158,726 L167,749 L171,758 L174,767 L184,790 L189,798 L192,805 L198,816 L202,822 L207,831 L211,836 L217,843 L221,850 L229,858 L238,865 L253,876 L266,884 L274,888 L282,891 L290,894 L306,898 L319,900 L336,900 L353,897 L369,891 L386,879 L396,868 L402,860 L411,846 L411,844 L413,844 L418,832 L425,818 L433,802 L441,792 L454,782 L463,778 L476,775 L488,775 L505,779 L515,784 L528,795 L536,807 L540,822 L543,824 L547,823 L555,812 L564,806 L572,802 L575,799 L576,794 L573,786 L569,778 L562,771 L555,763 L550,759 L540,755 L531,751 L518,747 L511,746 L490,745 L470,749 L449,758 L437,767 L429,774 L423,781 L423,784 L419,785 L411,798 L403,815 L396,829 L389,840 L376,854 L371,859 L360,867 L353,870 L326,876 L313,875 L291,870 L275,864 L267,860 L262,856 L286,864 L306,867 L315,867 L330,865 L346,859 L354,854 L364,845 L371,838 L377,830 L381,820 L387,809 L384,805 L374,807 L363,809 L339,809 L322,806 L311,803 L299,798 L287,791 L283,788 L281,788 L281,786 L273,780 L264,771 L255,758 L253,758 L251,753 L247,745 L244,740 L240,732 L233,719 L228,711 L216,702 L203,697 L182,693 L178,694 L177,699 L185,715 L189,728 L191,739 L191,745 L189,747 L180,723 L178,717 L169,700 L165,695 L160,690 L150,683 L140,679 L136,678 Z M-393,695 L-399,697 L-404,699 L-404,701 L-409,702 L-414,707 L-419,712 L-425,724 L-425,748 L-421,759 L-414,769 L-409,774 L-407,774 L-405,778 L-394,783 L-380,787 L-349,787 L-335,783 L-318,776 L-301,764 L-285,748 L-279,740 L-271,727 L-267,718 L-265,714 L-266,708 L-275,705 L-289,706 L-317,707 L-321,708 L-334,709 L-338,715 L-338,728 L-341,738 L-346,746 L-356,754 L-366,758 L-382,759 L-391,757 L-399,751 L-403,746 L-405,740 L-405,730 L-404,723 L-403,720 L-394,717 L-389,715 L-381,716 L-379,717 L-377,722 L-378,728 L-384,736 L-383,742 L-380,744 L-373,745 L-366,742 L-360,737 L-357,731 L-356,727 L-356,719 L-360,709 L-367,701 L-378,696 L-383,695 Z M365,698 L355,702 L349,706 L344,712 L341,723 L342,732 L346,740 L357,747 L362,748 L367,745 L368,738 L362,729 L363,724 L367,720 L372,718 L378,718 L386,723 L389,728 L390,736 L389,744 L384,753 L379,758 L368,762 L351,762 L337,755 L333,750 L330,747 L327,743 L323,728 L323,712 L320,710 L305,709 L302,708 L261,707 L253,710 L252,716 L257,727 L263,738 L267,744 L272,752 L274,752 L276,756 L287,767 L295,773 L301,777 L307,781 L327,788 L339,790 L365,790 L379,786 L392,778 L397,774 L404,763 L408,756 L410,750 L409,728 L403,714 L397,707 L387,701 L378,698 Z M-67,710 L-70,712 L-70,714 L-72,714 L-71,721 L-71,735 L-73,742 L-78,754 L-87,765 L-95,770 L-95,772 L-101,773 L-108,776 L-118,781 L-122,786 L-125,792 L-126,808 L-124,810 L-117,810 L-111,808 L-103,809 L-94,813 L-88,817 L-86,826 L-84,842 L-77,859 L-73,862 L-68,862 L-62,855 L-57,850 L-51,847 L-39,845 L-33,838 L-29,833 L-18,826 L-10,823 L-1,823 L14,832 L23,843 L24,844 L36,846 L42,849 L51,859 L54,862 L59,862 L64,856 L68,845 L71,834 L72,827 L74,818 L81,812 L93,808 L99,809 L109,810 L112,806 L111,793 L107,784 L99,779 L83,772 L73,764 L66,755 L62,748 L60,741 L59,732 L58,726 L59,723 L59,714 L57,710 L46,711 L35,717 L28,722 L21,733 L21,735 L19,735 L17,739 L15,740 L-29,740 L-35,731 L-40,723 L-49,716 L-57,711 Z M-567,754 Z M-569,755 Z M-147,780 L-157,784 L-161,788 L-165,797 L-166,814 L-160,831 L-157,835 L-156,839 L-166,835 L-177,831 L-192,831 L-203,835 L-212,841 L-215,843 L-215,845 L-217,845 L-222,851 L-227,864 L-228,869 L-228,887 L-224,900 L-214,912 L-207,916 L-203,917 L-184,917 L-174,914 L-165,904 L-163,899 L-162,886 L-163,879 L-166,873 L-173,868 L-180,867 L-187,870 L-192,878 L-192,889 L-200,885 L-204,880 L-206,871 L-201,862 L-197,858 L-182,854 L-172,855 L-163,859 L-153,868 L-149,871 L-147,871 L-147,873 L-139,880 L-131,886 L-129,886 L-127,890 L-122,894 L-103,904 L-88,910 L-74,914 L-54,918 L-34,921 L-20,926 L-11,932 L-3,931 L7,925 L18,921 L27,919 L55,915 L79,908 L102,897 L113,890 L120,884 L128,877 L142,864 L152,859 L160,856 L170,856 L181,859 L186,863 L189,872 L188,880 L182,887 L176,889 L176,879 L172,871 L163,868 L157,870 L151,874 L147,881 L145,889 L145,895 L151,907 L156,913 L170,918 L185,918 L194,914 L203,908 L210,894 L212,886 L212,870 L211,861 L205,851 L200,845 L192,839 L178,833 L164,832 L154,834 L143,838 L142,839 L143,835 L147,830 L150,820 L152,817 L151,797 L147,789 L143,784 L136,781 L127,781 L118,785 L119,790 L121,793 L123,803 L123,810 L124,812 L123,821 L120,837 L116,848 L109,859 L100,869 L93,875 L91,875 L95,868 L98,865 L101,859 L106,847 L106,832 L100,824 L94,821 L85,822 L81,826 L78,846 L73,859 L66,872 L56,883 L53,886 L40,894 L28,899 L21,901 L23,897 L28,894 L31,891 L31,889 L34,888 L39,878 L40,874 L40,865 L36,858 L31,856 L25,856 L20,860 L14,869 L10,873 L10,875 L6,877 L4,879 L5,873 L9,867 L11,860 L11,850 L4,842 L-2,838 L-11,837 L-21,844 L-25,850 L-27,860 L-23,869 L-20,875 L-19,879 L-27,873 L-34,863 L-37,858 L-39,856 L-46,856 L-51,859 L-56,864 L-57,872 L-53,883 L-50,886 L-47,891 L-38,898 L-37,901 L-55,895 L-69,886 L-77,878 L-81,872 L-84,869 L-88,859 L-91,850 L-94,843 L-95,833 L-97,824 L-102,821 L-109,821 L-115,824 L-118,828 L-120,829 L-121,832 L-121,847 L-114,864 L-107,873 L-105,877 L-110,875 L-110,873 L-118,867 L-123,862 L-130,850 L-135,837 L-138,818 L-137,801 L-134,791 L-132,789 L-132,782 L-141,780 Z " fill="#000000" transform="translate(651,50)"/>
<path d="M0,0 L7,0 L14,4 L19,10 L19,12 L10,12 L9,17 L-4,22 L-8,21 L-10,14 L-9,6 L-3,1 Z " fill="#000000" transform="translate(253,121)"/>
<path d="M0,0 L9,2 L14,6 L16,12 L16,18 L13,23 L10,24 L-3,20 L-5,16 L-5,13 L-12,13 L-13,9 L-5,2 Z " fill="#000000" transform="translate(1041,125)"/>
<path d="M0,0 L5,1 L10,4 L17,12 L20,14 L19,18 L12,21 L4,24 L-11,24 L-26,13 L-25,8 L-12,5 L-4,1 Z " fill="#000000" transform="translate(357,166)"/>
<path d="M0,0 L8,0 L22,6 L29,9 L30,13 L20,21 L14,24 L4,24 L-4,22 L-13,18 L-14,15 L-12,10 L-4,3 Z " fill="#000000" transform="translate(938,170)"/>
<path d="M0,0 L2,0 L1,5 L-2,9 L-7,25 L-8,33 L-9,34 L-8,50 L-4,54 L-1,53 L2,41 L6,41 L8,61 L11,73 L18,93 L22,94 L24,94 L25,87 L28,88 L34,97 L44,106 L52,113 L65,120 L65,122 L56,121 L42,115 L33,110 L30,110 L29,113 L24,113 L15,104 L11,98 L7,93 L2,83 L0,78 L-4,79 L-8,79 L-13,73 L-18,61 L-19,50 L-18,33 L-16,26 L-12,17 L-9,12 L-1,1 Z " fill="#000000" transform="translate(224,172)"/>
<path d="M0,0 L4,2 L5,3 L5,8 L8,9 L15,20 L19,34 L20,47 L14,65 L8,76 L5,78 L0,76 L-3,76 L-6,85 L-13,96 L-19,103 L-24,108 L-28,112 L-32,111 L-34,109 L-41,110 L-55,117 L-64,118 L-62,114 L-49,106 L-39,97 L-34,92 L-30,86 L-27,81 L-24,81 L-26,87 L-24,90 L-20,89 L-15,77 L-11,66 L-10,65 L-8,50 L-7,41 L-6,36 L-2,37 L0,49 L2,51 L7,50 L8,42 L8,33 L5,16 L2,8 L0,4 Z " fill="#000000" transform="translate(1074,182)"/>
<path d="M0,0 L10,0 L16,5 L18,9 L19,22 L23,31 L27,38 L27,40 L31,42 L41,47 L50,49 L62,51 L74,52 L77,53 L90,54 L94,55 L108,56 L111,57 L126,58 L131,61 L130,66 L114,74 L98,82 L99,88 L104,99 L107,107 L110,114 L117,129 L123,145 L126,150 L131,163 L133,166 L135,173 L135,183 L132,189 L128,192 L114,197 L99,200 L77,200 L62,198 L46,194 L38,190 L35,186 L36,167 L47,141 L52,130 L55,122 L61,109 L66,96 L74,80 L73,75 L54,75 L51,76 L38,77 L30,82 L25,87 L25,98 L29,108 L37,118 L38,123 L32,132 L28,140 L26,147 L24,154 L21,165 L21,209 L33,208 L53,212 L66,217 L86,224 L97,226 L104,226 L120,223 L128,230 L132,236 L132,312 L126,319 L112,324 L105,326 L86,326 L71,322 L55,316 L47,314 L32,314 L23,318 L18,322 L13,327 L6,328 L-8,327 L-13,322 L-21,315 L-26,313 L-40,314 L-58,319 L-64,321 L-76,324 L-88,326 L-95,326 L-100,324 L-116,320 L-126,315 L-128,310 L-127,271 L-127,249 L-126,237 L-120,226 L-116,223 L-108,223 L-90,225 L-76,222 L-61,217 L-45,211 L-26,208 L-14,208 L-13,206 L-13,170 L-15,163 L-15,157 L-19,143 L-24,131 L-28,123 L-30,118 L-20,107 L-15,95 L-15,88 L-20,81 L-30,76 L-49,73 L-57,73 L-63,75 L-64,79 L-60,87 L-56,97 L-50,113 L-44,128 L-38,142 L-34,152 L-28,167 L-28,187 L-32,191 L-43,195 L-52,197 L-61,199 L-92,199 L-107,196 L-121,191 L-126,187 L-128,182 L-128,171 L-121,155 L-118,150 L-115,142 L-110,130 L-105,118 L-103,118 L-102,113 L-97,101 L-89,85 L-88,81 L-96,76 L-112,69 L-121,64 L-122,59 L-115,56 L-101,56 L-98,55 L-65,53 L-61,52 L-47,51 L-30,47 L-22,42 L-17,37 L-12,32 L-8,21 L-8,9 L-2,1 Z M4,35 L2,37 L1,55 L0,59 L0,72 L-2,87 L-2,99 L-4,105 L-3,110 L2,112 L8,112 L12,115 L15,122 L18,124 L23,123 L24,117 L19,110 L16,101 L12,84 L11,81 L9,56 L8,48 L8,39 L7,35 Z M-83,86 L-86,91 L-92,102 L-96,112 L-106,136 L-110,145 L-115,155 L-114,160 L-112,162 L-105,162 L-102,161 L-89,160 L-81,157 L-79,154 L-78,89 Z M80,88 L76,90 L73,96 L70,105 L66,112 L63,120 L56,135 L50,151 L46,157 L47,163 L52,164 L60,162 L75,160 L80,158 L81,157 L82,131 L83,126 L84,105 L84,89 Z M89,88 L87,89 L87,156 L89,159 L96,161 L111,163 L121,163 L123,160 L122,155 L117,146 L113,136 L106,119 L103,112 L96,95 L93,88 Z M-70,91 L-73,93 L-73,156 L-69,159 L-50,162 L-48,163 L-42,163 L-39,160 L-40,153 L-44,144 L-48,134 L-53,125 L-56,116 L-66,92 Z M-32,214 L-52,219 L-79,229 L-97,230 L-111,228 L-114,230 L-115,279 L-112,284 L-105,287 L-79,287 L-63,280 L-52,275 L-30,269 L-19,269 L-4,274 L-1,271 L-1,225 L-4,220 L-10,216 L-20,214 Z M24,215 L14,218 L9,224 L8,226 L7,271 L10,273 L20,271 L24,270 L43,271 L54,274 L72,282 L82,287 L87,288 L109,288 L117,284 L120,281 L120,232 L117,230 L96,231 L80,228 L54,218 L47,216 L37,215 Z " fill="#000000" transform="translate(644,327)"/>
<path d="M0,0 L8,1 L12,5 L16,17 L16,25 L12,37 L8,41 L4,43 L-9,43 L-13,40 L-13,37 L-5,37 L1,36 L0,28 L-12,25 L-16,17 L-15,11 L-12,5 Z M0,7 L-6,10 L-6,18 L-3,22 L2,23 L6,20 L6,13 L1,7 Z " fill="#000000" transform="translate(617,812)"/>
<path d="M0,0 L7,0 L14,3 L18,9 L20,18 L19,27 L16,35 L12,41 L8,43 L-5,43 L-9,39 L-8,36 L5,36 L5,30 L2,27 L-7,26 L-10,22 L-12,14 L-9,7 L-4,2 Z M3,8 L-2,11 L-2,19 L2,22 L6,21 L9,17 L8,10 Z " fill="#000000" transform="translate(655,812)"/>
<path d="M0,0 L3,0 L2,38 L-5,40 L-9,39 L-9,16 L-11,6 L-1,1 Z " fill="#000000" transform="translate(587,814)"/>
<path d="M0,0 L13,0 L19,3 L22,7 L22,15 L18,21 L15,24 L15,30 L22,32 L22,37 L21,38 L-5,38 L-4,32 L6,22 L10,15 L10,10 L6,7 L0,8 L-4,10 L-5,5 L-3,1 Z " fill="#000000" transform="translate(688,815)"/>
</svg>
