<?xml version="1.0" encoding="UTF-8"?>
<!DOCTYPE svg PUBLIC "-//W3C//DTD SVG 1.1//EN" "http://www.w3.org/Graphics/SVG/1.1/DTD/svg11.dtd">
<svg xmlns="http://www.w3.org/2000/svg" version="1.1" width="1576px" height="1486px" style="shape-rendering:geometricPrecision; text-rendering:geometricPrecision; image-rendering:optimizeQuality; fill-rule:evenodd; clip-rule:evenodd" xmlns:xlink="http://www.w3.org/1999/xlink">
<g><path style="opacity:1" fill="#FFFFFF" d="M 1313.5,346.5 C 1313.8,349.059 1313.47,351.393 1312.5,353.5C 1309.52,351.526 1306.52,349.526 1303.5,347.5C 1302.67,364.49 1302.17,381.49 1302,398.5C 1298.82,412.885 1295.82,427.219 1293,441.5C 1304.97,451.798 1316.63,462.465 1328,473.5C 1339.64,487.117 1347.31,502.784 1351,520.5C 1355.12,531.62 1362.78,538.953 1374,542.5C 1374.74,559.693 1366.57,569.36 1349.5,571.5C 1351.05,577.55 1354.38,582.384 1359.5,586C 1368.51,591.839 1377.84,597.172 1387.5,602C 1389.71,603.873 1391.54,606.04 1393,608.5C 1407.08,643.807 1408.08,679.474 1396,715.5C 1383.87,742.298 1363.7,759.798 1335.5,768C 1355.7,782.222 1365.2,801.722 1364,826.5C 1348.89,830.875 1336.56,839.209 1327,851.5C 1320.67,861.833 1314.33,872.167 1308,882.5C 1295.6,895.4 1280.44,900.567 1262.5,898C 1238.69,892.689 1226.35,877.856 1225.5,853.5C 1228.95,829.1 1242.61,820.267 1266.5,827C 1278.67,832.505 1282.83,841.671 1279,854.5C 1273.02,863.243 1265.52,864.743 1256.5,859C 1254.91,854.679 1252.08,853.179 1248,854.5C 1247.5,862.675 1250.67,869.175 1257.5,874C 1274.19,881.185 1286.69,876.685 1295,860.5C 1299.9,829.557 1286.73,812.223 1255.5,808.5C 1239.62,810.026 1227.12,817.36 1218,830.5C 1207.35,851.815 1195.68,872.482 1183,892.5C 1162.82,915.747 1137.15,927.08 1106,926.5C 1073.43,924.031 1043.59,913.698 1016.5,895.5C 1015.91,895.709 1015.41,896.043 1015,896.5C 1008.88,930.974 988.381,946.807 953.5,944C 944.835,941.835 937.169,937.835 930.5,932C 924.884,926.065 919.718,919.898 915,913.5C 895.287,927.635 873.454,937.135 849.5,942C 836.519,944.13 823.519,946.13 810.5,948C 803.076,950.432 797.076,954.766 792.5,961C 784.115,964.548 777.449,962.548 772.5,955C 769.498,952.497 766.165,950.497 762.5,949C 748.544,946.387 734.544,944.054 720.5,942C 696.397,936.976 674.564,927.142 655,912.5C 636.513,944.491 610.68,952.324 577.5,936C 569.818,929.979 563.985,922.479 560,913.5C 558.164,907.489 556.331,901.489 554.5,895.5C 531.736,910.047 507.069,919.88 480.5,925C 444.357,931.175 413.857,921.008 389,894.5C 384.273,888.103 379.94,881.436 376,874.5C 368.068,858.914 359.735,843.581 351,828.5C 336.87,810.844 319.037,805.344 297.5,812C 274.332,824.836 268.165,843.336 279,867.5C 289.965,878.792 302.132,880.292 315.5,872C 320.339,867.494 322.839,861.994 323,855.5C 322.261,854.426 321.261,853.759 320,853.5C 316.459,856.705 312.626,859.538 308.5,862C 294.099,862.923 287.932,856.09 290,841.5C 296.377,828.227 306.877,822.727 321.5,825C 336.096,828.775 344.096,838.275 345.5,853.5C 342.445,882.22 326.445,897.22 297.5,898.5C 284.907,898.45 274.073,894.116 265,885.5C 257.75,874.669 250.75,863.669 244,852.5C 239.867,847.366 235.367,842.532 230.5,838C 222.53,833.765 214.363,829.932 206,826.5C 205.204,801.926 214.704,782.426 234.5,768C 196.525,755.257 174.025,729.091 167,689.5C 163.757,662.021 167.09,635.354 177,609.5C 178.061,606.438 179.894,603.938 182.5,602C 195.964,596.526 207.797,588.692 218,578.5C 219.707,576.091 220.54,573.425 220.5,570.5C 204.313,568.974 195.98,559.974 195.5,543.5C 203.039,540.462 209.539,535.796 215,529.5C 220.471,515.42 226.138,501.42 232,487.5C 243.167,471 257,457.167 273.5,446C 275.871,444.257 277.205,441.923 277.5,439C 273.461,423.678 270.294,408.178 268,392.5C 267.382,377.113 267.382,361.78 268,346.5C 264.333,349.167 260.667,351.833 257,354.5C 256.879,327.587 266.046,304.42 284.5,285C 278.7,287.233 273.034,290.066 267.5,293.5C 272.455,269.908 282.121,248.242 296.5,228.5C 293.597,228.322 290.764,229.322 288,231.5C 298.039,201.6 314.539,175.766 337.5,154C 343.852,149.64 350.185,145.307 356.5,141C 351.254,116.493 360.254,99.4926 383.5,90C 396.222,87.0127 408.222,88.846 419.5,95.5C 442.319,88.2371 456.652,96.0704 462.5,119C 471.216,120.042 479.882,121.376 488.5,123C 500.65,125.987 510.816,132.154 519,141.5C 523.861,149.027 530.027,155.194 537.5,160C 539.608,160.36 541.608,161.027 543.5,162C 561.5,162.333 579.5,162.667 597.5,163C 602.866,164.7 605.533,168.366 605.5,174C 603.448,184.602 598.615,193.769 591,201.5C 587.324,211.851 580.991,220.185 572,226.5C 572.513,232.303 570.68,237.136 566.5,241C 553.823,246.006 541.157,251.006 528.5,256C 514.81,257.928 501.144,259.928 487.5,262C 476.069,264.602 468.736,271.436 465.5,282.5C 468.408,294.57 476.075,301.737 488.5,304C 506.652,306.171 523.319,302.171 538.5,292C 554.659,280.42 570.992,269.087 587.5,258C 604.605,246.632 623.438,241.132 644,241.5C 653.863,241.803 663.697,242.47 673.5,243.5C 674.705,235.768 673.205,228.768 669,222.5C 658.308,210.809 647.308,199.476 636,188.5C 634.382,183.88 634.382,179.213 636,174.5C 640.038,161.589 647.205,150.756 657.5,142C 664.076,137.127 670.91,132.627 678,128.5C 692.444,105.061 712.611,88.5606 738.5,79C 740.833,78.3333 743.167,78.3333 745.5,79C 753.9,84.5617 761.567,91.0617 768.5,98.5C 770.483,96.0163 772.65,93.6829 775,91.5C 775.86,87.0479 774.36,83.5479 770.5,81C 765.291,79.4176 761.291,76.4176 758.5,72C 758.645,71.228 758.978,70.5613 759.5,70C 770.54,66.9205 778.04,60.0872 782,49.5C 784.592,48.0183 786.925,48.3517 789,50.5C 790.581,56.0864 793.748,60.5864 798.5,64C 802.595,66.3608 806.762,68.5275 811,70.5C 811.667,71.8333 811.667,73.1667 811,74.5C 804.304,77.1782 798.971,81.5115 795,87.5C 794.333,88.8333 794.333,90.1667 795,91.5C 797.833,93 800,95.1667 801.5,98C 802.167,98.6667 802.833,98.6667 803.5,98C 809.948,90.5452 817.282,84.2119 825.5,79C 830.439,78.5306 835.106,79.5306 839.5,82C 862.399,92.2377 880.232,108.071 893,129.5C 913.244,138.076 926.91,152.742 934,173.5C 935.29,178.11 935.624,182.777 935,187.5C 928,195.833 920.333,203.5 912,210.5C 906.956,215.876 902.289,221.542 898,227.5C 897.171,232.864 897.337,238.198 898.5,243.5C 927.882,237.901 955.549,242.401 981.5,257C 1001.32,271.41 1021.65,285.077 1042.5,298C 1060.19,306.636 1077.86,306.636 1095.5,298C 1108.23,286.226 1107.23,275.56 1092.5,266C 1090.28,264.725 1087.95,263.725 1085.5,263C 1070.89,260.448 1056.22,258.114 1041.5,256C 1028.82,250.994 1016.16,245.994 1003.5,241C 999.709,236.966 997.875,232.133 998,226.5C 989.427,219.919 983.093,211.586 979,201.5C 971.919,193.504 967.086,184.338 964.5,174C 964.732,168.528 967.398,164.862 972.5,163C 991.871,162.923 1011.2,162.256 1030.5,161C 1038.19,157.974 1044.03,152.808 1048,145.5C 1063.68,126.688 1083.84,118.022 1108.5,119.5C 1111.31,100.524 1122.31,91.6903 1141.5,93C 1144.77,93.4534 1147.93,94.2867 1151,95.5C 1175.02,83.0045 1195.02,87.6711 1211,109.5C 1215.85,119.88 1216.69,130.547 1213.5,141.5C 1229.9,149.733 1243.4,161.399 1254,176.5C 1265.06,193.275 1274.56,210.941 1282.5,229.5C 1282,229.833 1281.5,230.167 1281,230.5C 1278.55,229.173 1276.05,228.339 1273.5,228C 1288.12,247.728 1297.95,269.562 1303,293.5C 1297.22,290.192 1291.39,287.358 1285.5,285C 1301.98,302.134 1311.31,322.634 1313.5,346.5 Z"/></g>
<g><path style="opacity:1" fill="#FFFFFF" d="M 419.5,542.5 C 418.833,540.167 418.167,537.833 417.5,535.5C 416.239,526.967 411.906,521.301 404.5,518.5C 409.742,534.625 406.575,548.959 395,561.5C 395.067,549.087 391.733,537.753 385,527.5C 389.501,560.162 384.167,591.162 369,620.5C 366.814,624.198 364.147,627.532 361,630.5C 360.314,626.679 359.314,623.012 358,619.5C 353.179,632.821 344.346,642.488 331.5,648.5C 330.799,645.247 330.799,642.247 331.5,639.5C 330.3,640.531 328.966,641.365 327.5,642C 309.195,643.327 291.528,647.327 274.5,654C 263.386,660.811 259.22,670.644 262,683.5C 266.422,691.243 273.089,694.576 282,693.5C 290.677,692.632 299.344,691.632 308,690.5C 312.243,690.113 316.076,691.113 319.5,693.5C 316.649,696.204 315.149,699.537 315,703.5C 311.022,706.063 309.522,709.73 310.5,714.5C 304.535,715.066 301.868,718.399 302.5,724.5C 293.553,724.452 288.219,728.785 286.5,737.5C 278.778,739.222 274.111,743.889 272.5,751.5C 251.511,753.838 231.844,749.671 213.5,739C 195.709,725.593 185.543,707.76 183,685.5C 181.203,661.748 184.536,638.748 193,616.5C 207.068,609.802 219.068,600.469 229,588.5C 237.087,577.839 239.254,566.172 235.5,553.5C 228.53,558.757 221.53,558.757 214.5,553.5C 212.861,552.084 212.027,550.417 212,548.5C 219.72,546.121 225.72,541.455 230,534.5C 233.942,524.34 237.276,514.007 240,503.5C 242.27,498.902 244.937,494.569 248,490.5C 254.167,484.333 260.333,478.167 266.5,472C 274.188,467.156 281.521,461.823 288.5,456C 293.043,451.756 294.877,446.589 294,440.5C 282.413,408.564 279.413,375.897 285,342.5C 287.822,333.352 292.322,325.186 298.5,318C 289.567,319.895 281.733,324.062 275,330.5C 276.546,322.386 279.546,314.719 284,307.5C 293.257,292.163 304.091,277.997 316.5,265C 307.151,265.447 298.318,267.947 290,272.5C 297.121,249.359 309.288,229.193 326.5,212C 321.314,212.559 316.314,214.059 311.5,216.5C 321.106,190.02 338.106,169.187 362.5,154C 366.688,151.938 371.021,150.271 375.5,149C 364.347,134.835 365.013,121.169 377.5,108C 385.473,101.842 394.473,99.8416 404.5,102C 410.43,103.922 415.263,107.422 419,112.5C 421.764,119.093 424.597,125.593 427.5,132C 446.585,130.759 465.585,131.759 484.5,135C 490.057,136.778 495.391,139.111 500.5,142C 507.421,148.697 513.755,155.864 519.5,163.5C 524.497,168.499 530.497,171.666 537.5,173C 555.5,173.333 573.5,173.667 591.5,174C 592.065,180.53 589.398,185.53 583.5,189C 582.167,189.667 580.833,189.667 579.5,189C 577.13,187.815 574.797,186.649 572.5,185.5C 571.558,185.608 570.725,185.941 570,186.5C 569.582,188.788 570.249,190.788 572,192.5C 574.376,195.045 576.876,197.378 579.5,199.5C 576.762,207.737 571.428,213.57 563.5,217C 544.089,221.988 524.922,221.488 506,215.5C 496.083,218.074 494.916,222.907 502.5,230C 519.396,232.22 536.229,231.72 553,228.5C 555.814,228.408 558.147,229.408 560,231.5C 560.507,232.996 560.007,234.163 558.5,235C 553.406,235.524 548.406,236.524 543.5,238C 537.621,240.404 531.621,242.404 525.5,244C 509.761,245.061 494.094,246.728 478.5,249C 467.758,252.95 458.924,259.45 452,268.5C 448.177,276.2 447.51,284.2 450,292.5C 451.806,297.446 454.139,302.112 457,306.5C 469.571,322.107 479.238,339.44 486,358.5C 487.532,371.185 486.199,383.518 482,395.5C 481.227,381.951 477.56,369.284 471,357.5C 470,356.5 469,355.5 468,354.5C 467.833,355 467.667,355.5 467.5,356C 467.911,377.216 467.911,398.383 467.5,419.5C 460.324,414.479 455.157,407.812 452,399.5C 445.996,381.489 439.996,363.489 434,345.5C 422.084,317.319 401.25,300.152 371.5,294C 398.54,309.713 416.706,332.547 426,362.5C 429.844,377.543 433.844,392.543 438,407.5C 449.59,432.375 468.09,439.542 493.5,429C 499.5,425.333 505.5,421.667 511.5,418C 527.081,413.871 542.081,415.538 556.5,423C 566.699,427.895 570.532,435.728 568,446.5C 552.23,457.97 536.73,469.803 521.5,482C 507.007,491.209 491.34,494.875 474.5,493C 476.833,495.333 479.167,497.667 481.5,500C 462.504,502.777 445.17,498.777 429.5,488C 427.641,486.442 426.141,484.609 425,482.5C 424.998,487.831 427.165,492.164 431.5,495.5C 427.731,496.427 424.064,495.927 420.5,494C 402.392,486.226 389.226,473.392 381,455.5C 381.388,462.49 381.721,469.49 382,476.5C 363.298,458.433 351.965,436.433 348,410.5C 347.667,410.167 347.333,409.833 347,409.5C 345.751,417.825 344.584,426.158 343.5,434.5C 333.523,423.558 326.356,410.892 322,396.5C 316.16,377.961 312.827,358.961 312,339.5C 303.783,377.875 310.117,413.542 331,446.5C 335.591,453.095 340.924,459.095 347,464.5C 348,462.5 349,460.5 350,458.5C 359.295,479.073 373.295,495.74 392,508.5C 392.87,504.176 393.703,499.842 394.5,495.5C 402.612,502.396 410.945,509.063 419.5,515.5C 427.416,524.503 427.416,533.503 419.5,542.5 Z"/></g>
<g><path style="opacity:1" fill="#FFFFFF" d="M 1176.5,554.5 C 1175.83,556.5 1175.17,558.5 1174.5,560.5C 1163.14,547.925 1159.97,533.592 1165,517.5C 1155.9,523.705 1151.56,532.372 1152,543.5C 1142.44,531.617 1143.61,520.784 1155.5,511C 1163.14,506.927 1169.97,501.76 1176,495.5C 1177.1,499.356 1177.94,503.356 1178.5,507.5C 1197.6,495.574 1211.43,479.24 1220,458.5C 1221.08,459.665 1221.92,460.998 1222.5,462.5C 1223,463.521 1223.67,463.688 1224.5,463C 1254.21,432.544 1266.37,396.044 1261,353.5C 1260.54,350.146 1260.04,346.813 1259.5,343.5C 1259.11,341.821 1258.61,340.154 1258,338.5C 1257.5,342.152 1257.33,345.818 1257.5,349.5C 1255.89,372.924 1250.06,395.257 1240,416.5C 1236.41,423.354 1232.07,429.687 1227,435.5C 1225.5,426.193 1224.17,416.859 1223,407.5C 1218.95,433.423 1208.12,455.923 1190.5,475C 1190.17,475.167 1189.83,475.333 1189.5,475.5C 1189.17,473.5 1188.83,471.5 1188.5,469.5C 1189.1,465.162 1189.26,460.828 1189,456.5C 1178.82,478.368 1161.98,491.535 1138.5,496C 1143.03,492.516 1145.2,488.016 1145,482.5C 1142.83,486 1140,488.833 1136.5,491C 1122.48,498.46 1107.48,501.626 1091.5,500.5C 1090.5,500.333 1089.5,500.167 1088.5,500C 1090.83,497.667 1093.17,495.333 1095.5,493C 1087.49,493.961 1079.49,493.627 1071.5,492C 1050.6,484.757 1032.6,473.091 1017.5,457C 1012.92,453.46 1008.09,450.294 1003,447.5C 999.612,438.096 1002.11,430.596 1010.5,425C 1025.42,415.318 1041.42,412.985 1058.5,418C 1067.44,424.306 1077.11,429.306 1087.5,433C 1108.51,435.983 1123.34,427.816 1132,408.5C 1136.71,392.604 1141.05,376.604 1145,360.5C 1154.43,331.077 1172.6,308.91 1199.5,294C 1169.06,300.089 1147.9,317.589 1136,346.5C 1130.34,363.817 1124.67,381.15 1119,398.5C 1115.83,407.196 1110.49,414.196 1103,419.5C 1103.78,401.989 1103.28,384.489 1101.5,367C 1101.74,363.091 1101.91,359.257 1102,355.5C 1098.11,359.06 1095.45,363.393 1094,368.5C 1091.14,376.962 1089.14,385.629 1088,394.5C 1081.12,376.344 1082.12,358.677 1091,341.5C 1097.67,328.822 1105.34,316.822 1114,305.5C 1128.5,281.022 1122.66,262.856 1096.5,251C 1093.5,250 1090.5,249 1087.5,248C 1072.79,247.15 1058.12,245.816 1043.5,244C 1033.11,239.982 1022.45,236.982 1011.5,235C 1010.45,233.612 1010.28,232.112 1011,230.5C 1012.91,229.07 1015.07,228.404 1017.5,228.5C 1034.06,231.788 1050.72,232.288 1067.5,230C 1072.56,227.463 1074.06,223.63 1072,218.5C 1069.78,216.805 1067.28,215.805 1064.5,215.5C 1045.35,221.621 1026.01,222.121 1006.5,217C 999.113,212.94 993.78,206.94 990.5,199C 993.965,196.537 997.131,193.704 1000,190.5C 1000.99,188.075 1000.32,186.409 998,185.5C 988.994,192.163 982.661,190.163 979,179.5C 978.505,177.527 978.338,175.527 978.5,173.5C 995.503,173.667 1012.5,173.5 1029.5,173C 1036.13,172.746 1042.13,170.746 1047.5,167C 1054.17,159.333 1060.83,151.667 1067.5,144C 1078.25,136.418 1090.25,132.418 1103.5,132C 1116.85,131.501 1130.19,131.501 1143.5,132C 1145.92,127.066 1147.76,121.9 1149,116.5C 1156.26,103.955 1167.1,99.122 1181.5,102C 1199.27,109.047 1205.77,121.88 1201,140.5C 1199.57,143.927 1197.4,146.76 1194.5,149C 1208.07,153.118 1219.74,160.284 1229.5,170.5C 1242.23,184.652 1252.39,200.318 1260,217.5C 1254.37,214.515 1248.54,212.349 1242.5,211C 1260.53,228.233 1273.03,248.733 1280,272.5C 1271.64,268.203 1262.81,265.703 1253.5,265C 1272,282.987 1286,303.987 1295.5,328C 1295.17,328.5 1294.83,329 1294.5,329.5C 1288.06,323.781 1280.73,319.948 1272.5,318C 1281.08,328.664 1286.25,340.83 1288,354.5C 1289.85,383.209 1286.18,411.209 1277,438.5C 1275.96,443.44 1276.63,448.106 1279,452.5C 1285.97,459.81 1293.81,465.977 1302.5,471C 1310.33,477.5 1317.5,484.667 1324,492.5C 1326.73,496.241 1329.07,500.241 1331,504.5C 1333.34,515.175 1336.67,525.509 1341,535.5C 1345.3,542.565 1351.46,547.065 1359.5,549C 1354.95,555.744 1348.61,558.41 1340.5,557C 1338.41,556.208 1336.58,555.041 1335,553.5C 1331.11,564.681 1332.45,575.348 1339,585.5C 1349.21,599.03 1362.04,609.363 1377.5,616.5C 1388.19,643.849 1390.35,671.849 1384,700.5C 1377.48,721.348 1364.31,736.181 1344.5,745C 1329.62,750.592 1314.29,752.925 1298.5,752C 1296.49,744.152 1291.49,739.652 1283.5,738.5C 1282.82,729.311 1277.82,724.978 1268.5,725.5C 1268.74,722.206 1267.91,719.206 1266,716.5C 1264.56,714.845 1262.72,714.178 1260.5,714.5C 1261.26,709.689 1259.59,706.022 1255.5,703.5C 1254.69,701.577 1254.19,699.577 1254,697.5C 1252.65,696.315 1251.48,694.981 1250.5,693.5C 1253.59,691.194 1257.09,690.194 1261,690.5C 1269.66,691.667 1278.33,692.667 1287,693.5C 1305.38,694.082 1312.38,685.415 1308,667.5C 1302.6,657.861 1294.43,651.694 1283.5,649C 1269.83,646.667 1256.17,644.333 1242.5,642C 1241.42,641.044 1240.25,640.211 1239,639.5C 1239.46,642.796 1239.79,646.13 1240,649.5C 1226.43,642.596 1217.1,631.929 1212,617.5C 1211.4,621.883 1210.56,626.216 1209.5,630.5C 1203.78,624.735 1199.28,618.068 1196,610.5C 1184.9,583.292 1181.57,555.292 1186,526.5C 1179.78,534.752 1176.61,544.086 1176.5,554.5 Z"/></g>
<g><path style="opacity:1" fill="#FFFFFF" d="M 429.5,103.5 C 440.268,103.372 447.268,108.372 450.5,118.5C 445.167,118.5 439.833,118.5 434.5,118.5C 433.564,113.527 431.564,109.027 428.5,105C 429.056,104.617 429.389,104.117 429.5,103.5 Z"/></g>
<g><path style="opacity:1" fill="#FFFFFF" d="M 1133.5,103.5 C 1136.48,103.104 1139.15,103.771 1141.5,105.5C 1138.97,109.221 1136.97,113.221 1135.5,117.5C 1117.47,121.585 1115.13,117.751 1128.5,106C 1130.31,105.243 1131.98,104.41 1133.5,103.5 Z"/></g>
<g><path style="opacity:1" fill="#FFFFFF" d="M 737.5,105.5 C 741.024,105.929 744.024,107.429 746.5,110C 753.573,116.402 759.906,123.402 765.5,131C 754.016,133.499 745.849,139.999 741,150.5C 739.205,167.206 746.705,174.872 763.5,173.5C 761.709,167.963 761.209,162.296 762,156.5C 766.466,151.679 771.966,148.512 778.5,147C 780.754,145.623 782.92,144.123 785,142.5C 790.807,146.32 796.973,149.487 803.5,152C 809.792,158.314 810.125,164.98 804.5,172C 800.625,173.52 796.625,173.854 792.5,173C 791.333,172.5 790.5,171.667 790,170.5C 791.939,163.187 789.106,160.354 781.5,162C 776.454,164.995 774.121,169.495 774.5,175.5C 771.048,176.392 768.048,178.058 765.5,180.5C 767.88,183.881 770.88,186.547 774.5,188.5C 773.587,199.584 778.587,203.918 789.5,201.5C 787.966,192.87 791.633,189.37 800.5,191C 808.969,195.42 810.802,201.92 806,210.5C 800.617,213.964 794.784,216.464 788.5,218C 786.667,219.167 784.833,220.333 783,221.5C 778.143,217.488 772.643,214.654 766.5,213C 761.021,207.134 760.021,200.467 763.5,193C 754.453,188.481 747.453,190.981 742.5,200.5C 731.218,177.426 717.552,155.926 701.5,136C 710.63,122.365 722.63,112.198 737.5,105.5 Z"/></g>
<g><path style="opacity:1" fill="#FFFFFF" d="M 829.5,105.5 C 846.232,110.869 859.232,121.036 868.5,136C 852.948,155.588 839.781,176.755 829,199.5C 827.413,192.488 823.913,186.655 818.5,182C 830.423,169.843 831.59,156.676 822,142.5C 817.196,137.182 811.363,133.515 804.5,131.5C 811.509,121.493 819.842,112.826 829.5,105.5 Z"/></g>
<g><path style="opacity:1" fill="#FFFFFF" d="M 392.5,113.5 C 407.091,112.26 414.591,118.926 415,133.5C 409.924,129.143 404.091,127.643 397.5,129C 402.032,129.697 405.698,131.864 408.5,135.5C 401.058,137.689 393.725,139.856 386.5,142C 378.384,130.29 380.384,120.79 392.5,113.5 Z"/></g>
<g><path style="opacity:1" fill="#FFFFFF" d="M 1166.5,113.5 C 1181.96,111.466 1189.13,118.133 1188,133.5C 1187.39,137.381 1185.73,140.714 1183,143.5C 1176.19,140.007 1169.02,137.507 1161.5,136C 1164.13,132.682 1167.47,130.349 1171.5,129C 1165.89,127.676 1160.89,128.843 1156.5,132.5C 1155.33,123.837 1158.67,117.504 1166.5,113.5 Z"/></g>
<g><path style="opacity:1" fill="#FFFFFF" d="M 886.5,153.5 C 900.156,157.651 908.323,166.651 911,180.5C 901.5,190.667 892,200.833 882.5,211C 872.393,208.972 862.393,206.306 852.5,203C 861.991,185.168 873.324,168.668 886.5,153.5 Z"/></g>
<g><path style="opacity:1" fill="#FFFFFF" d="M 680.5,153.5 C 684.302,154.779 687.469,157.112 690,160.5C 700.41,173.645 709.577,187.645 717.5,202.5C 717.291,203.086 716.957,203.586 716.5,204C 706.703,206.2 697.036,208.533 687.5,211C 678,200.833 668.5,190.667 659,180.5C 659.851,175.451 661.851,170.785 665,166.5C 669.48,161.173 674.647,156.84 680.5,153.5 Z"/></g>
<g><path style="opacity:1" fill="#FFFFFF" d="M 493.5,160.5 C 502.702,159.009 508.536,162.676 511,171.5C 514.36,172.827 516.026,175.16 516,178.5C 510.569,180.298 505.402,182.798 500.5,186C 490.745,188.793 483.078,186.126 477.5,178C 475.667,176.833 473.833,175.667 472,174.5C 471.349,172.765 471.515,171.098 472.5,169.5C 480.155,167.834 487.155,164.834 493.5,160.5 Z"/></g>
<g><path style="opacity:1" fill="#FFFFFF" d="M 1067.5,160.5 C 1075.19,160.339 1082.19,162.506 1088.5,167C 1091.53,167.539 1094.53,168.206 1097.5,169C 1098.58,170.726 1098.74,172.559 1098,174.5C 1094.2,177.297 1090.7,180.464 1087.5,184C 1081.72,186.394 1075.72,187.061 1069.5,186C 1067.16,185.163 1065.16,183.829 1063.5,182C 1060.9,181.08 1058.23,180.413 1055.5,180C 1054.42,178.274 1054.26,176.441 1055,174.5C 1058.94,169.613 1063.11,164.947 1067.5,160.5 Z"/></g>
<g><path style="opacity:1" fill="#FFFFFF" d="M 1172.5,286.5 C 1171.68,283.023 1171.18,279.356 1171,275.5C 1170.28,276.044 1169.78,276.711 1169.5,277.5C 1165.88,281.316 1161.55,284.15 1156.5,286C 1150.64,287.921 1144.64,289.087 1138.5,289.5C 1136.59,289.784 1134.92,289.451 1133.5,288.5C 1154.67,280.497 1169.84,266.163 1179,245.5C 1180.09,251.782 1180.76,258.116 1181,264.5C 1187.23,255.022 1191.57,244.689 1194,233.5C 1195.88,222.863 1197.55,212.196 1199,201.5C 1202.41,209.736 1205.41,218.07 1208,226.5C 1212.85,211.736 1212.51,197.069 1207,182.5C 1204.1,176.089 1201.43,169.756 1199,163.5C 1217.02,179.537 1225.02,199.537 1223,223.5C 1220.64,234.885 1215.64,244.885 1208,253.5C 1206.52,249.385 1204.85,245.385 1203,241.5C 1199.77,261.309 1189.61,276.309 1172.5,286.5 Z"/></g>
<g><path style="opacity:1" fill="#FFFFFF" d="M 436.5,288.5 C 435.081,289.451 433.415,289.784 431.5,289.5C 419.134,289.548 408.634,285.215 400,276.5C 399.667,280.167 399.333,283.833 399,287.5C 381.355,277.162 370.689,261.829 367,241.5C 365.713,245.37 364.047,249.036 362,252.5C 348.915,237.497 344.248,220.164 348,200.5C 352.745,185.76 360.745,173.093 372,162.5C 368.806,169.242 365.806,176.242 363,183.5C 357.11,198.233 357.11,212.9 363,227.5C 364.738,218.454 367.571,209.787 371.5,201.5C 372.717,219.42 376.551,236.754 383,253.5C 384.934,257.759 387.268,261.759 390,265.5C 390.17,259.472 390.67,253.472 391.5,247.5C 401.732,266.399 416.732,280.066 436.5,288.5 Z"/></g>
<g><path style="opacity:1" fill="#FFFFFF" d="M 494.5,167.5 C 501.587,165.923 504.753,168.59 504,175.5C 500.629,180.85 495.796,182.683 489.5,181C 486.689,179.356 484.356,177.19 482.5,174.5C 483.328,173.585 484.328,172.919 485.5,172.5C 489.339,178.968 494.173,179.968 500,175.5C 500.946,173.044 500.446,171.044 498.5,169.5C 497.15,170.95 495.484,171.617 493.5,171.5C 493.433,170.041 493.766,168.708 494.5,167.5 Z"/></g>
<g><path style="opacity:1" fill="#FFFFFF" d="M 1068.5,167.5 C 1070.86,167.337 1073.19,167.503 1075.5,168C 1076.97,168.71 1077.64,169.876 1077.5,171.5C 1075.17,171.753 1073.17,171.086 1071.5,169.5C 1069.62,170.693 1069.12,172.359 1070,174.5C 1075.58,180.02 1080.42,179.353 1084.5,172.5C 1087.86,173.347 1088.36,175.013 1086,177.5C 1079.16,183.088 1072.82,182.755 1067,176.5C 1066.07,173.177 1066.57,170.177 1068.5,167.5 Z"/></g>
<g><path style="opacity:1" fill="#FFFFFF" d="M 698.5,260.5 C 696.528,251.56 695.861,242.227 696.5,232.5C 712.337,225.503 729.003,222.669 746.5,224C 753.222,229.527 760.889,233.194 769.5,235C 774.666,237.08 779.333,239.913 783.5,243.5C 791.626,236.618 800.96,232.118 811.5,230C 814.772,228.392 817.772,226.392 820.5,224C 838.98,223.038 856.814,225.871 874,232.5C 874.5,241.827 874.666,251.161 874.5,260.5C 864.429,259.544 854.429,258.044 844.5,256C 808.515,254.458 772.515,254.125 736.5,255C 723.679,255.859 711.013,257.693 698.5,260.5 Z"/></g>
<g><path style="opacity:1" fill="#FFFFFF" d="M 696.5,232.5 C 695.861,242.227 696.528,251.56 698.5,260.5C 697.791,261.404 696.791,261.737 695.5,261.5C 695.173,251.652 695.506,241.986 696.5,232.5 Z"/></g>
<g><path style="opacity:1" fill="#FFFFFF" d="M 637.5,251.5 C 647.2,251.353 656.866,251.853 666.5,253C 670.75,253.232 671.417,254.732 668.5,257.5C 666.328,257.676 663.995,257.843 661.5,258C 660.228,259.307 659.228,260.807 658.5,262.5C 656.902,261.515 655.235,261.349 653.5,262C 651.978,263.522 650.478,265.022 649,266.5C 643.455,264.688 639.288,266.355 636.5,271.5C 630.276,271.691 626.11,274.691 624,280.5C 624.154,287.166 622.82,293.499 620,299.5C 610.726,305.775 602.393,313.108 595,321.5C 595.292,316.219 596.792,311.219 599.5,306.5C 599.154,305.304 598.654,305.304 598,306.5C 591.444,314.942 586.444,324.276 583,334.5C 574.169,348.67 563.169,361.004 550,371.5C 549.833,371 549.667,370.5 549.5,370C 551.638,365.261 553.138,360.427 554,355.5C 536.935,375.239 516.935,391.239 494,403.5C 496.165,395.982 498.165,388.316 500,380.5C 502.94,366.081 501.607,352.081 496,338.5C 492.389,331.958 489.389,325.291 487,318.5C 505.66,323.337 522.994,320.337 539,309.5C 537.713,313.334 537.046,317.334 537,321.5C 557.477,293.68 583.31,272.513 614.5,258C 622.16,255.339 629.827,253.172 637.5,251.5 Z"/></g>
<g><path style="opacity:1" fill="#FFFFFF" d="M 914.5,251.5 C 937.216,251.127 958.216,256.96 977.5,269C 998.51,283.339 1017.01,300.506 1033,320.5C 1033.6,317.344 1033.1,314.344 1031.5,311.5C 1031.83,311.167 1032.17,310.833 1032.5,310.5C 1048.67,320.457 1066,323.29 1084.5,319C 1067.03,344.91 1064.36,372.243 1076.5,401C 1076.17,401.5 1075.83,402 1075.5,402.5C 1066.2,398.36 1057.53,393.194 1049.5,387C 1038.06,377.566 1027.23,367.399 1017,356.5C 1018,361.167 1019,365.833 1020,370.5C 1008.63,362.126 998.959,352.126 991,340.5C 985.922,330.01 980.589,319.677 975,309.5C 973.667,308.167 972.333,306.833 971,305.5C 971.374,308.275 972.374,310.942 974,313.5C 975.318,316.43 975.985,319.43 976,322.5C 968.587,313.085 959.92,305.085 950,298.5C 947.987,293.388 946.987,288.055 947,282.5C 945.389,275.428 940.889,271.761 933.5,271.5C 931.004,266.332 927.004,264.666 921.5,266.5C 920.026,263.701 917.692,262.034 914.5,261.5C 913.446,261.68 912.446,262.013 911.5,262.5C 910.335,257.979 907.668,256.646 903.5,258.5C 902.231,256.82 900.564,255.653 898.5,255C 903.755,253.152 909.088,251.985 914.5,251.5 Z"/></g>
<g><path style="opacity:1" fill="#FFFFFF" d="M 673.5,259.5 C 680.402,260.374 685.902,263.707 690,269.5C 693.188,274.516 695.188,279.849 696,285.5C 688.701,276.503 681.201,267.836 673.5,259.5 Z"/></g>
<g><path style="opacity:1" fill="#FFFFFF" d="M 892.5,259.5 C 894.288,259.215 895.955,259.548 897.5,260.5C 890.758,264.742 885.591,270.408 882,277.5C 879.333,280.167 876.667,282.833 874,285.5C 876.114,273.895 882.28,265.229 892.5,259.5 Z"/></g>
<g><path style="opacity:1" fill="#FFFFFF" d="M 667.5,264.5 C 675.785,267.953 681.618,273.953 685,282.5C 686.525,285.72 687.192,289.053 687,292.5C 679.19,284.867 672.356,276.534 666.5,267.5C 666.685,266.416 667.018,265.416 667.5,264.5 Z"/></g>
<g><path style="opacity:1" fill="#FFFFFF" d="M 899.5,264.5 C 900.833,264.5 902.167,264.5 903.5,264.5C 903.662,266.527 903.495,268.527 903,270.5C 896.706,278.462 890.04,286.129 883,293.5C 884.355,281.455 889.855,271.788 899.5,264.5 Z"/></g>
<g><path style="opacity:1" fill="#FFFFFF" d="M 656.5,268.5 C 661.346,270.503 665.18,273.836 668,278.5C 672.145,284.606 674.479,291.272 675,298.5C 669.406,290.902 663.073,283.902 656,277.5C 654.029,274.384 654.195,271.384 656.5,268.5 Z"/></g>
<g><path style="opacity:1" fill="#FFFFFF" d="M 911.5,268.5 C 915.254,269.828 916.421,272.494 915,276.5C 907.96,283.871 901.294,291.538 895,299.5C 895.026,293.415 896.693,287.749 900,282.5C 903.29,277.378 907.123,272.711 911.5,268.5 Z"/></g>
<g><path style="opacity:1" fill="#FFFFFF" d="M 645.5,273.5 C 650.815,276.65 654.981,280.983 658,286.5C 661.182,291.506 663.182,296.839 664,302.5C 658.333,295.5 652,289.167 645,283.5C 642.872,279.975 643.039,276.642 645.5,273.5 Z"/></g>
<g><path style="opacity:1" fill="#FFFFFF" d="M 922.5,273.5 C 926.685,274.543 928.185,277.209 927,281.5C 919.635,288.53 912.635,295.864 906,303.5C 908.594,291.984 914.094,281.984 922.5,273.5 Z"/></g>
<g><path style="opacity:1" fill="#FFFFFF" d="M 765.5,277.5 C 766.675,277.281 767.675,277.614 768.5,278.5C 760.095,304.739 742.762,322.239 716.5,331C 696.88,336.62 676.88,340.287 656.5,342C 638.064,347.774 627.564,360.274 625,379.5C 624.667,401.5 624.333,423.5 624,445.5C 616.438,437.922 607.271,434.589 596.5,435.5C 596.372,433.345 596.872,431.345 598,429.5C 601.828,426.585 605.828,423.919 610,421.5C 611.041,418.364 610.207,415.864 607.5,414C 611.823,409.438 611.157,405.605 605.5,402.5C 604.23,396.563 600.563,392.896 594.5,391.5C 589.942,353.431 605.609,327.931 641.5,315C 656.381,311.95 671.381,309.616 686.5,308C 695.875,305.653 704.875,302.32 713.5,298C 720.167,292.667 726.833,287.333 733.5,282C 735.5,281.333 737.5,280.667 739.5,280C 748.321,279.183 756.988,278.35 765.5,277.5 Z"/></g>
<g><path style="opacity:1" fill="#FFFFFF" d="M 784.5,277.5 C 788.957,290.082 794.79,302.082 802,313.5C 819.406,334.962 841.906,347.795 869.5,352C 882.464,353.906 895.464,355.573 908.5,357C 922.034,361.522 929.201,371.022 930,385.5C 930.667,414.5 930.667,443.5 930,472.5C 927.506,490.406 926.839,508.406 928,526.5C 930.46,543.93 932.293,561.43 933.5,579C 934.54,598.201 929.707,615.701 919,631.5C 910.99,640.498 901.157,646.664 889.5,650C 864.885,655.59 840.218,660.923 815.5,666C 804.801,668.935 794.634,673.102 785,678.5C 776.273,673.7 767.107,669.866 757.5,667C 732.932,661.238 708.265,655.905 683.5,651C 658.496,644.156 643.663,627.989 639,602.5C 637.959,595.212 637.459,587.878 637.5,580.5C 639.552,555.683 641.552,530.85 643.5,506C 643.348,494.054 642.182,482.221 640,470.5C 639.333,442.5 639.333,414.5 640,386.5C 640.594,373.264 646.76,363.764 658.5,358C 676.589,355.652 694.589,352.652 712.5,349C 750.981,339.686 774.981,315.852 784.5,277.5 Z"/></g>
<g><path style="opacity:1" fill="#FFFFFF" d="M 801.5,277.5 C 813.582,278.371 825.582,279.871 837.5,282C 843.091,285.586 848.091,289.92 852.5,295C 862.018,301.259 872.352,305.592 883.5,308C 899.357,309.607 915.024,312.273 930.5,316C 965.538,328.936 980.538,354.102 975.5,391.5C 972.42,392.789 969.586,394.455 967,396.5C 964.735,400.94 962.235,405.274 959.5,409.5C 959.876,411.383 960.876,412.883 962.5,414C 960.078,416.003 959.245,418.503 960,421.5C 964.884,423.72 969.218,426.72 973,430.5C 974.009,432.025 974.509,433.692 974.5,435.5C 963.838,434.12 954.672,437.12 947,444.5C 946.883,422.142 946.216,399.809 945,377.5C 942.276,358.775 931.776,346.942 913.5,342C 891.971,340.694 870.971,336.694 850.5,330C 825.331,320.667 808.997,303.167 801.5,277.5 Z"/></g>
<g><path style="opacity:1" fill="#FFFFFF" d="M 631.5,280.5 C 636.962,281.83 641.462,284.83 645,289.5C 648.728,293.951 651.062,298.951 652,304.5C 645.333,299.167 638.667,293.833 632,288.5C 630.304,285.881 630.137,283.214 631.5,280.5 Z"/></g>
<g><path style="opacity:1" fill="#FFFFFF" d="M 935.5,280.5 C 936.822,280.33 937.989,280.663 939,281.5C 939.667,283.5 939.667,285.5 939,287.5C 932.483,293.514 925.65,299.181 918.5,304.5C 918.167,304.167 917.833,303.833 917.5,303.5C 921.327,294.021 927.327,286.354 935.5,280.5 Z"/></g>
<g><path style="opacity:1" fill="#FFFFFF" d="M 1172.5,286.5 C 1172.44,287.043 1172.11,287.376 1171.5,287.5C 1170.83,284.023 1170.17,280.689 1169.5,277.5C 1169.78,276.711 1170.28,276.044 1171,275.5C 1171.18,279.356 1171.68,283.023 1172.5,286.5 Z"/></g>
<g><path style="opacity:1" fill="#FFFFFF" d="M 436.5,288.5 C 437.289,288.783 437.956,289.283 438.5,290C 435.961,290.796 433.628,290.629 431.5,289.5C 433.415,289.784 435.081,289.451 436.5,288.5 Z"/></g>
<g><path style="opacity:1" fill="#FFFFFF" d="M 1133.5,288.5 C 1134.92,289.451 1136.59,289.784 1138.5,289.5C 1136.37,290.629 1134.04,290.796 1131.5,290C 1132.04,289.283 1132.71,288.783 1133.5,288.5 Z"/></g>
<g><path style="opacity:1" fill="#FFFFFF" d="M 782.5,316.5 C 794.846,317.366 800.013,324.033 798,336.5C 802.433,354.599 813.933,364.433 832.5,366C 856.139,368.921 879.806,371.588 903.5,374C 907.065,376.178 907.399,378.844 904.5,382C 893.611,386.609 883.278,391.942 873.5,398C 885.805,428.11 897.972,458.277 910,488.5C 910.909,494.612 910.576,500.612 909,506.5C 902.773,510.69 895.94,513.523 888.5,515C 866.91,519.103 845.576,518.103 824.5,512C 821.088,510.545 817.921,508.712 815,506.5C 813.43,500.947 813.097,495.281 814,489.5C 826.942,456.17 839.775,422.837 852.5,389.5C 841.445,389.121 830.445,389.621 819.5,391C 811.757,393.91 806.091,399.077 802.5,406.5C 805.867,417.918 812.201,427.251 821.5,434.5C 805.502,461.816 799.836,491.15 804.5,522.5C 811.841,522.334 819.174,522.5 826.5,523C 840.516,527.672 854.516,532.339 868.5,537C 874.5,537.667 880.5,537.667 886.5,537C 891.5,535.93 896.5,535.263 901.5,535C 903.623,539.415 906.123,543.582 909,547.5C 910.19,572.829 910.857,598.163 911,623.5C 900.133,630.718 888.133,634.051 875,633.5C 868.355,633.708 861.855,632.875 855.5,631C 846.34,627.391 837.007,624.391 827.5,622C 814.531,619.324 804.531,623.491 797.5,634.5C 789.5,635.833 781.5,635.833 773.5,634.5C 767.288,622.735 757.621,618.568 744.5,622C 733.285,625.738 721.952,629.072 710.5,632C 692.423,635.904 675.59,633.071 660,623.5C 660.19,598.164 660.857,572.831 662,547.5C 664.877,543.582 667.377,539.415 669.5,535C 673.487,535.324 677.487,535.991 681.5,537C 687.833,537.667 694.167,537.667 700.5,537C 714.913,532.63 729.246,527.963 743.5,523C 751.159,522.5 758.826,522.334 766.5,522.5C 770.728,491.194 765.062,461.86 749.5,434.5C 758.211,426.788 764.544,417.454 768.5,406.5C 764.174,397.009 756.841,391.509 746.5,390C 737.149,389.168 727.816,389.335 718.5,390.5C 731.431,423.461 744.265,456.461 757,489.5C 757.903,495.281 757.57,500.947 756,506.5C 749.773,510.69 742.94,513.523 735.5,515C 711.996,519.661 688.996,517.995 666.5,510C 664.91,508.954 663.41,507.787 662,506.5C 660.424,500.612 660.091,494.612 661,488.5C 673.028,458.277 685.195,428.11 697.5,398C 687.722,391.942 677.389,386.609 666.5,382C 663.601,378.844 663.935,376.178 667.5,374C 690.159,371.616 712.825,369.283 735.5,367C 760.882,364.281 773.716,350.115 774,324.5C 776.074,320.923 778.907,318.256 782.5,316.5 Z"/></g>
<g><path style="opacity:1" fill="#FFFFFF" d="M 782.5,322.5 C 786.07,321.893 788.737,323.06 790.5,326C 788.349,328.365 785.683,329.031 782.5,328C 780.103,326.29 780.103,324.456 782.5,322.5 Z"/></g>
<g><path style="opacity:1" fill="#FFFFFF" d="M 779.5,330.5 C 783.335,333.125 787.168,333.125 791,330.5C 790.143,335.118 787.31,336.618 782.5,335C 780.859,333.871 779.859,332.371 779.5,330.5 Z"/></g>
<g><path style="opacity:1" fill="#FFFFFF" d="M 783.5,340.5 C 784.833,340.5 786.167,340.5 787.5,340.5C 788.147,361.382 790.647,382.048 795,402.5C 797.949,415.239 804.116,426.072 813.5,435C 809.234,437.811 804.567,439.311 799.5,439.5C 799.332,434.327 796.998,430.494 792.5,428C 787.42,426.558 782.42,426.058 777.5,426.5C 780.085,397.893 782.085,369.227 783.5,340.5 Z"/></g>
<g><path style="opacity:1" fill="#FFFFFF" d="M 1259.5,343.5 C 1258.83,345.5 1258.17,347.5 1257.5,349.5C 1257.33,345.818 1257.5,342.152 1258,338.5C 1258.61,340.154 1259.11,341.821 1259.5,343.5 Z"/></g>
<g><path style="opacity:1" fill="#FFFFFF" d="M 777.5,342.5 C 778.152,343.449 778.486,344.615 778.5,346C 776.844,361.906 774.677,377.739 772,393.5C 770.455,386.554 766.622,381.387 760.5,378C 745.21,379.119 729.877,379.952 714.5,380.5C 714.5,378.833 714.5,377.167 714.5,375.5C 726.271,375.39 737.938,374.223 749.5,372C 764.161,367.174 773.494,357.34 777.5,342.5 Z"/></g>
<g><path style="opacity:1" fill="#FFFFFF" d="M 792.5,343.5 C 797.675,357.508 807.342,367.008 821.5,372C 833.102,374.027 844.769,375.527 856.5,376.5C 856.5,377.833 856.5,379.167 856.5,380.5C 840.734,380.743 825.067,379.91 809.5,378C 804.745,380.667 801.245,384.501 799,389.5C 797.472,385.361 796.472,381.028 796,376.5C 794.451,365.53 793.285,354.53 792.5,343.5 Z"/></g>
<g><path style="opacity:1" fill="#FFFFFF" d="M 1313.5,346.5 C 1314.8,349.024 1314.8,351.691 1313.5,354.5C 1312.89,354.376 1312.56,354.043 1312.5,353.5C 1313.47,351.393 1313.8,349.059 1313.5,346.5 Z"/></g>
<g><path style="opacity:1" fill="#FFFFFF" d="M 574.5,386.5 C 574.823,379.978 574.49,373.645 573.5,367.5C 573.783,366.711 574.283,366.044 575,365.5C 575.821,372.679 575.655,379.679 574.5,386.5 Z"/></g>
<g><path style="opacity:1" fill="#FFFFFF" d="M 573.5,367.5 C 574.49,373.645 574.823,379.978 574.5,386.5C 557.061,385.721 543.061,392.221 532.5,406C 527.077,406.527 521.744,407.194 516.5,408C 521.014,404.909 525.347,401.575 529.5,398C 532.762,395.408 535.262,392.241 537,388.5C 537.202,390.256 537.702,391.922 538.5,393.5C 546.33,388.084 554.33,382.917 562.5,378C 566.668,374.998 570.335,371.498 573.5,367.5 Z"/></g>
<g><path style="opacity:1" fill="#FFFFFF" d="M 1032.5,393.5 C 1033.33,393.246 1034,392.246 1034.5,390.5C 1040.09,397.586 1046.75,403.419 1054.5,408C 1044.47,409.34 1036.47,406.007 1030.5,398C 1020.35,389.671 1008.68,385.838 995.5,386.5C 995.334,379.825 995.5,373.158 996,366.5C 1000.13,370.997 1004.63,375.164 1009.5,379C 1017.19,383.844 1024.86,388.677 1032.5,393.5 Z"/></g>
<g><path style="opacity:1" fill="#FFFFFF" d="M 692.5,377.5 C 696.846,377.334 701.179,377.501 705.5,378C 704.833,379 704.167,380 703.5,381C 698.989,381.401 694.489,381.901 690,382.5C 687.268,382.385 684.768,381.552 682.5,380C 685.834,378.916 689.168,378.082 692.5,377.5 Z"/></g>
<g><path style="opacity:1" fill="#FFFFFF" d="M 865.5,378.5 C 866.097,377.861 866.93,377.528 868,377.5C 874.872,378.074 881.706,378.907 888.5,380C 886.1,381.701 883.433,382.534 880.5,382.5C 876.171,381.963 871.838,381.463 867.5,381C 866.934,380.005 866.267,379.172 865.5,378.5 Z"/></g>
<g><path style="opacity:1" fill="#FFFFFF" d="M 1034.5,390.5 C 1034,392.246 1033.33,393.246 1032.5,393.5C 1032.34,391.473 1032.5,389.473 1033,387.5C 1033.51,388.527 1034.01,389.527 1034.5,390.5 Z"/></g>
<g><path style="opacity:1" fill="#FFFFFF" d="M 559.5,392.5 C 561.527,392.338 563.527,392.505 565.5,393C 558.624,396.87 552.624,401.87 547.5,408C 545.365,408.635 543.365,408.301 541.5,407C 546.483,400.845 552.483,396.012 559.5,392.5 Z"/></g>
<g><path style="opacity:1" fill="#FFFFFF" d="M 1005.5,393.5 C 1015.3,393.688 1022.96,398.188 1028.5,407C 1026.1,407.814 1023.76,407.647 1021.5,406.5C 1016.88,401.202 1011.54,396.869 1005.5,393.5 Z"/></g>
<g><path style="opacity:1" fill="#FFFFFF" d="M 573.5,394.5 C 576.85,394.335 580.183,394.502 583.5,395C 574.209,398.98 566.042,404.48 559,411.5C 557.112,411.204 555.278,410.704 553.5,410C 559.007,403.109 565.674,397.942 573.5,394.5 Z"/></g>
<g><path style="opacity:1" fill="#FFFFFF" d="M 705.5,477.5 C 705.831,449.995 705.498,422.662 704.5,395.5C 704.783,394.711 705.283,394.044 706,393.5C 706.83,421.67 706.664,449.67 705.5,477.5 Z"/></g>
<g><path style="opacity:1" fill="#FFFFFF" d="M 866.5,395.5 C 865.502,422.662 865.169,449.995 865.5,477.5C 864.336,449.67 864.17,421.67 865,393.5C 865.717,394.044 866.217,394.711 866.5,395.5 Z"/></g>
<g><path style="opacity:1" fill="#FFFFFF" d="M 986.5,395.5 C 993.157,393.903 999.49,395.069 1005.5,399C 1009.59,402.048 1013.26,405.548 1016.5,409.5C 1014.38,411.115 1012.05,411.615 1009.5,411C 1003.28,403.597 995.611,398.431 986.5,395.5 Z"/></g>
<g><path style="opacity:1" fill="#FFFFFF" d="M 704.5,395.5 C 705.498,422.662 705.831,449.995 705.5,477.5C 693.408,477.207 681.741,479.207 670.5,483.5C 670.167,483 669.833,482.5 669.5,482C 681.466,453.263 693.133,424.43 704.5,395.5 Z"/></g>
<g><path style="opacity:1" fill="#FFFFFF" d="M 866.5,395.5 C 877.867,424.43 889.534,453.263 901.5,482C 901.167,482.5 900.833,483 900.5,483.5C 889.162,479.666 877.495,477.666 865.5,477.5C 865.169,449.995 865.502,422.662 866.5,395.5 Z"/></g>
<g><path style="opacity:1" fill="#FFFFFF" d="M 713.5,396.5 C 725.151,425.141 736.818,453.808 748.5,482.5C 748.167,482.833 747.833,483.167 747.5,483.5C 736.237,479.352 724.57,477.352 712.5,477.5C 712.169,450.328 712.502,423.328 713.5,396.5 Z"/></g>
<g><path style="opacity:1" fill="#FFFFFF" d="M 857.5,397.5 C 858.498,423.995 858.831,450.661 858.5,477.5C 846.4,477.136 834.734,479.136 823.5,483.5C 823.167,483.167 822.833,482.833 822.5,482.5C 833.979,454.057 845.645,425.724 857.5,397.5 Z"/></g>
<g><path style="opacity:1" fill="#FFFFFF" d="M 585.5,398.5 C 589.846,398.334 594.179,398.501 598.5,399C 588.397,402.887 579.397,408.553 571.5,416C 568.672,416.969 566.338,416.303 564.5,414C 570.579,407.397 577.579,402.231 585.5,398.5 Z"/></g>
<g><path style="opacity:1" fill="#FFFFFF" d="M 973.5,398.5 C 980.722,397.594 987.389,399.094 993.5,403C 997.833,406.667 1002.17,410.333 1006.5,414C 1004.55,416.071 1002.21,416.738 999.5,416C 992.054,409.384 983.72,404.217 974.5,400.5C 973.702,400.043 973.369,399.376 973.5,398.5 Z"/></g>
<g><path style="opacity:1" fill="#FFFFFF" d="M 592.5,406.5 C 596.457,406.268 600.124,407.101 603.5,409C 599.232,409.534 595.232,410.867 591.5,413C 586.306,417.027 580.973,420.86 575.5,424.5C 573.833,423.5 572.5,422.167 571.5,420.5C 577.739,414.557 584.739,409.891 592.5,406.5 Z"/></g>
<g><path style="opacity:1" fill="#FFFFFF" d="M 970.5,406.5 C 975.08,406.113 979.414,406.947 983.5,409C 989.399,412.231 994.732,416.231 999.5,421C 998.094,423.449 996.094,424.449 993.5,424C 985.936,416.44 976.936,411.44 966.5,409C 967.858,408.066 969.192,407.232 970.5,406.5 Z"/></g>
<g><path style="opacity:1" fill="#FFFFFF" d="M 594.5,417.5 C 597.572,417.183 600.572,417.516 603.5,418.5C 595.095,421.901 587.762,426.901 581.5,433.5C 580.353,431.235 580.186,428.902 581,426.5C 584.882,422.429 589.382,419.429 594.5,417.5 Z"/></g>
<g><path style="opacity:1" fill="#FFFFFF" d="M 975.5,418.5 C 972.941,418.198 970.607,418.532 968.5,419.5C 967.624,419.631 966.957,419.298 966.5,418.5C 969.645,417.197 972.645,417.197 975.5,418.5 Z"/></g>
<g><path style="opacity:1" fill="#FFFFFF" d="M 968.5,419.5 C 970.607,418.532 972.941,418.198 975.5,418.5C 981.502,419.586 986.336,422.586 990,427.5C 990.946,429.956 990.446,431.956 988.5,433.5C 985.349,430.85 982.349,428.016 979.5,425C 976.09,422.628 972.423,420.795 968.5,419.5 Z"/></g>
<g><path style="opacity:1" fill="#FFFFFF" d="M 772.5,440.5 C 774.167,440.5 775.833,440.5 777.5,440.5C 779.076,447.955 783.41,450.122 790.5,447C 792.414,445.587 793.747,443.753 794.5,441.5C 796.074,440.369 797.741,440.202 799.5,441C 795.635,451.932 788.301,455.266 777.5,451C 774.397,448.194 772.73,444.694 772.5,440.5 Z"/></g>
<g><path style="opacity:1" fill="#FFFFFF" d="M 600.5,579.5 C 600.312,581.103 600.812,582.437 602,583.5C 602.499,579.179 602.666,574.846 602.5,570.5C 603.432,552.837 603.932,535.17 604,517.5C 602.609,507.885 598.443,499.718 591.5,493C 582.352,487.953 573.518,488.453 565,494.5C 558.919,501.949 559.086,509.116 565.5,516C 566.784,516.684 567.951,516.517 569,515.5C 569.606,502.53 575.606,499.196 587,505.5C 594.238,521.856 589.072,532.023 571.5,536C 552.448,536.119 542.115,526.619 540.5,507.5C 542.473,490.418 551.807,479.585 568.5,475C 590.056,472.193 605.222,480.693 614,500.5C 613.204,480.38 603.037,468.213 583.5,464C 581.012,460.552 581.678,457.552 585.5,455C 597.604,449.224 607.771,451.724 616,462.5C 621.311,471.097 624.644,480.43 626,490.5C 626.667,503.833 626.667,517.167 626,530.5C 622.347,551.683 620.68,573.016 621,594.5C 624.595,633.434 645.428,657.601 683.5,667C 712.73,671.391 741.064,679.057 768.5,690C 774.094,692.713 779.594,695.547 785,698.5C 806.058,687.369 828.224,679.202 851.5,674C 869.285,671.371 886.618,667.038 903.5,661C 932.886,648.25 948.053,625.75 949,593.5C 949.667,583.5 949.667,573.5 949,563.5C 944.371,540.401 942.704,517.067 944,493.5C 945.085,481.911 948.752,471.244 955,461.5C 963.242,451.407 973.075,449.24 984.5,455C 988.657,457.456 989.323,460.456 986.5,464C 969.281,467.554 959.114,478.054 956,495.5C 955.333,497.5 955.333,499.5 956,501.5C 967.768,476.135 986.601,468.635 1012.5,479C 1029.7,490.59 1033.86,505.757 1025,524.5C 1011.15,539.45 996.816,540.116 982,526.5C 977.665,517.978 978.832,510.478 985.5,504C 996.355,500.189 1001.52,504.023 1001,515.5C 1002.87,516.672 1004.7,516.505 1006.5,515C 1010.99,506.933 1009.99,499.6 1003.5,493C 990.747,486.423 980.247,488.923 972,500.5C 969.578,504.505 967.911,508.838 967,513.5C 966.462,536.197 967.128,558.863 969,581.5C 970.37,574.312 972.37,567.312 975,560.5C 982.144,548.186 992.644,544.019 1006.5,548C 1015.52,553.285 1016.85,560.118 1010.5,568.5C 999.9,568.215 992.4,572.882 988,582.5C 983.575,593.444 980.575,604.777 979,616.5C 971.559,650.606 951.392,673.439 918.5,685C 898.087,691.012 877.42,696.012 856.5,700C 827.541,706.335 803.708,720.835 785,743.5C 773.988,728.401 759.821,717.235 742.5,710C 720.819,701.663 698.485,695.663 675.5,692C 621.968,681.462 592.468,648.962 587,594.5C 584.611,586.554 580.777,579.387 575.5,573C 570.875,570.296 565.875,568.962 560.5,569C 553.56,559.113 555.56,551.78 566.5,547C 578.974,544.811 588.474,548.978 595,559.5C 597.958,565.873 599.792,572.539 600.5,579.5 Z"/></g>
<g><path style="opacity:1" fill="#FFFFFF" d="M 797.5,513.5 C 796.5,513.5 795.5,513.5 794.5,513.5C 794.5,508.167 794.5,502.833 794.5,497.5C 795.453,478.138 800.953,460.138 811,443.5C 811.654,442.304 812.154,442.304 812.5,443.5C 801.478,465.668 796.478,489.001 797.5,513.5 Z"/></g>
<g><path style="opacity:1" fill="#FFFFFF" d="M 858.5,477.5 C 858.831,450.661 858.498,423.995 857.5,397.5C 857.461,396.244 857.961,395.244 859,394.5C 859.83,422.336 859.664,450.003 858.5,477.5 Z"/></g>
<g><path style="opacity:1" fill="#FFFFFF" d="M 713.5,396.5 C 712.502,423.328 712.169,450.328 712.5,477.5C 711.336,449.67 711.17,421.67 712,393.5C 712.513,394.527 713.013,395.527 713.5,396.5 Z"/></g>
<g><path style="opacity:1" fill="#FFFFFF" d="M 777.5,501.5 C 778.089,505.971 777.423,509.971 775.5,513.5C 774.504,513.586 773.671,513.252 773,512.5C 772.039,500.496 771.039,488.496 770,476.5C 769.126,470.338 767.626,464.338 765.5,458.5C 765.846,457.304 766.346,457.304 767,458.5C 773.483,472.1 776.983,486.434 777.5,501.5 Z"/></g>
<g><path style="opacity:1" fill="#FFFFFF" d="M 691.5,483.5 C 696.5,483.5 701.5,483.5 706.5,483.5C 706.5,485.167 706.5,486.833 706.5,488.5C 696.271,488.24 686.105,488.907 676,490.5C 674.833,490.167 673.667,489.833 672.5,489.5C 674.554,487.806 676.888,486.639 679.5,486C 683.665,485.295 687.665,484.461 691.5,483.5 Z"/></g>
<g><path style="opacity:1" fill="#FFFFFF" d="M 712.5,483.5 C 723.071,483.446 733.404,484.946 743.5,488C 746.23,489.232 746.063,490.065 743,490.5C 736.2,489.47 729.366,488.803 722.5,488.5C 719.375,487.521 716.042,487.187 712.5,487.5C 712.5,486.167 712.5,484.833 712.5,483.5 Z"/></g>
<g><path style="opacity:1" fill="#FFFFFF" d="M 844.5,483.5 C 849.5,483.5 854.5,483.5 859.5,483.5C 859.5,485.167 859.5,486.833 859.5,488.5C 849.271,488.24 839.105,488.907 829,490.5C 827.833,490.167 826.667,489.833 825.5,489.5C 827.554,487.806 829.888,486.639 832.5,486C 836.665,485.295 840.665,484.461 844.5,483.5 Z"/></g>
<g><path style="opacity:1" fill="#FFFFFF" d="M 864.5,483.5 C 873.553,483.71 882.553,484.543 891.5,486C 894,486.885 896.333,488.052 898.5,489.5C 897.5,489.833 896.5,490.167 895.5,490.5C 885.568,488.955 875.568,488.122 865.5,488C 864.62,486.644 864.286,485.144 864.5,483.5 Z"/></g>
<g><path style="opacity:1" fill="#FFFFFF" d="M 712.5,483.5 C 712.5,484.833 712.5,486.167 712.5,487.5C 716.042,487.187 719.375,487.521 722.5,488.5C 718.833,488.5 715.167,488.5 711.5,488.5C 711.216,486.585 711.549,484.919 712.5,483.5 Z"/></g>
<g><path style="opacity:1" fill="#FFFFFF" d="M 666.5,495.5 C 694.47,504.831 722.47,504.831 750.5,495.5C 751.777,498.034 751.777,500.534 750.5,503C 731.807,510.071 712.474,512.405 692.5,510C 683.936,508.888 675.602,506.888 667.5,504C 666.556,501.281 666.223,498.448 666.5,495.5 Z"/></g>
<g><path style="opacity:1" fill="#FFFFFF" d="M 819.5,495.5 C 847.461,504.813 875.461,504.813 903.5,495.5C 904.833,498.167 904.833,500.833 903.5,503.5C 875.628,514.084 847.795,514.084 820,503.5C 819.503,500.854 819.336,498.187 819.5,495.5 Z"/></g>
<g><path style="opacity:1" fill="#FFFFFF" d="M 524.5,496.5 C 525.376,496.369 526.043,496.702 526.5,497.5C 525.872,500.78 525.539,504.113 525.5,507.5C 525.596,512.944 526.096,518.277 527,523.5C 521.015,516.267 513.849,510.601 505.5,506.5C 512.322,503.907 518.655,500.574 524.5,496.5 Z"/></g>
<g><path style="opacity:1" fill="#FFFFFF" d="M 1044.5,496.5 C 1051.15,499.824 1057.82,503.158 1064.5,506.5C 1056.52,511.083 1049.35,516.749 1043,523.5C 1044.21,518.144 1045.04,512.644 1045.5,507C 1045.29,503.477 1044.96,499.977 1044.5,496.5 Z"/></g>
<g><path style="opacity:1" fill="#FFFFFF" d="M 794.5,497.5 C 794.5,502.833 794.5,508.167 794.5,513.5C 795.5,513.5 796.5,513.5 797.5,513.5C 796.432,514.434 795.099,514.768 793.5,514.5C 793.178,508.642 793.511,502.975 794.5,497.5 Z"/></g>
<g><path style="opacity:1" fill="#FFFFFF" d="M 777.5,501.5 C 778.485,505.634 778.818,509.968 778.5,514.5C 777.209,514.737 776.209,514.404 775.5,513.5C 777.423,509.971 778.089,505.971 777.5,501.5 Z"/></g>
<g><path style="opacity:1" fill="#FFFFFF" d="M 771.5,518.5 C 773.833,518.5 776.167,518.5 778.5,518.5C 779.667,525.319 777.5,526.986 772,523.5C 771.506,521.866 771.34,520.199 771.5,518.5 Z"/></g>
<g><path style="opacity:1" fill="#FFFFFF" d="M 794.5,518.5 C 796.5,518.5 798.5,518.5 800.5,518.5C 800.5,520.167 800.5,521.833 800.5,523.5C 798.708,523.366 797.042,523.699 795.5,524.5C 794.539,522.735 794.205,520.735 794.5,518.5 Z"/></g>
<g><path style="opacity:1" fill="#FFFFFF" d="M 794.5,518.5 C 794.205,520.735 794.539,522.735 795.5,524.5C 795.44,525.043 795.107,525.376 794.5,525.5C 793.203,523.027 793.203,520.693 794.5,518.5 Z"/></g>
<g><path style="opacity:1" fill="#FFFFFF" d="M 479.5,522.5 C 499.51,521.417 514.01,529.75 523,547.5C 528.011,558.668 529.678,570.334 528,582.5C 525.667,579.5 523.333,576.5 521,573.5C 523.15,589.537 519.15,603.87 509,616.5C 500.29,626.208 491.957,636.208 484,646.5C 480.522,655.535 483.688,659.535 493.5,658.5C 502.54,657.326 511.54,655.826 520.5,654C 529.215,653.196 537.882,653.363 546.5,654.5C 547.647,656.765 547.814,659.098 547,661.5C 543.253,664.456 542.753,667.789 545.5,671.5C 543.517,672.982 541.684,674.649 540,676.5C 539.242,678.769 539.409,680.936 540.5,683C 534.108,685.722 531.775,690.555 533.5,697.5C 525.944,696.887 521.944,700.387 521.5,708C 521.565,710.526 522.232,712.859 523.5,715C 502.495,715.621 481.495,715.955 460.5,716C 438.848,712.678 424.015,700.845 416,680.5C 412.99,671.303 409.49,662.303 405.5,653.5C 415.749,644.091 422.916,632.757 427,619.5C 429.628,604.383 425.295,591.716 414,581.5C 421.975,565.147 432.808,550.647 446.5,538C 456.354,530.069 467.354,524.903 479.5,522.5 Z"/></g>
<g><path style="opacity:1" fill="#FFFFFF" d="M 1081.5,716.5 C 1070.17,715.833 1058.83,715.167 1047.5,714.5C 1048.93,710.129 1048.76,705.795 1047,701.5C 1044.59,698.38 1041.43,697.047 1037.5,697.5C 1038.82,691.14 1036.65,686.474 1031,683.5C 1031.46,678.258 1029.63,674.091 1025.5,671C 1027.39,666.798 1026.39,663.465 1022.5,661C 1023.17,658.667 1023.83,656.333 1024.5,654C 1032.17,653.333 1039.83,653.333 1047.5,654C 1057.13,655.821 1066.79,657.321 1076.5,658.5C 1087.06,659.137 1090.23,654.804 1086,645.5C 1074.91,633.076 1064.57,620.076 1055,606.5C 1050.21,596.395 1048.21,585.728 1049,574.5C 1047.16,576.864 1045.32,579.197 1043.5,581.5C 1042.51,576.695 1042.18,571.695 1042.5,566.5C 1044.62,544.744 1055.95,530.244 1076.5,523C 1088.44,521.657 1099.77,523.657 1110.5,529C 1130.68,541.999 1146.01,559.332 1156.5,581C 1140.52,597.464 1138.36,615.63 1150,635.5C 1154.68,641.671 1159.51,647.671 1164.5,653.5C 1160.02,666.442 1154.85,679.109 1149,691.5C 1138.39,707.062 1123.55,715.229 1104.5,716C 1096.84,716.5 1089.17,716.666 1081.5,716.5 Z"/></g>
<g><path style="opacity:1" fill="#FFFFFF" d="M 780.5,539.5 C 780.83,555.009 780.496,570.342 779.5,585.5C 763.997,577.696 748.33,577.53 732.5,585C 722.941,590.113 712.941,594.113 702.5,597C 693.658,598.126 684.992,597.459 676.5,595C 674.919,594.293 673.419,593.46 672,592.5C 671.333,575.167 671.333,557.833 672,540.5C 683.309,543.937 694.809,544.437 706.5,542C 717.823,538.007 729.157,534.007 740.5,530C 751.167,526.667 761.833,526.667 772.5,530C 776.698,531.905 779.364,535.072 780.5,539.5 Z"/></g>
<g><path style="opacity:1" fill="#FFFFFF" d="M 791.5,585.5 C 790.504,570.676 790.171,555.676 790.5,540.5C 792.521,532.994 797.521,528.827 805.5,528C 812.215,527.289 818.882,527.622 825.5,529C 839.929,533.477 854.263,538.143 868.5,543C 878.681,544.105 888.681,543.272 898.5,540.5C 899.666,557.824 899.833,575.157 899,592.5C 895.454,594.681 891.62,596.181 887.5,597C 880.833,597.667 874.167,597.667 867.5,597C 858.169,594.169 849.169,590.502 840.5,586C 829.344,580.931 817.678,578.931 805.5,580C 800.482,581.012 795.815,582.845 791.5,585.5 Z"/></g>
<g><path style="opacity:1" fill="#FFFFFF" d="M 744.5,536.5 C 751.524,536.435 758.524,536.768 765.5,537.5C 765.5,539.167 765.5,540.833 765.5,542.5C 758.523,541.543 751.523,541.377 744.5,542C 732.745,546.375 721.078,551.042 709.5,556C 701.002,558.428 692.335,559.595 683.5,559.5C 683.338,557.473 683.505,555.473 684,553.5C 690.137,554.701 696.303,554.534 702.5,553C 716.487,547.162 730.487,541.662 744.5,536.5 Z"/></g>
<g><path style="opacity:1" fill="#FFFFFF" d="M 810.5,536.5 C 818.282,536.287 825.949,537.121 833.5,539C 843.065,542.449 852.399,546.449 861.5,551C 869.822,554.319 878.322,555.152 887,553.5C 887.863,555.749 887.363,557.582 885.5,559C 879.442,559.739 873.442,559.406 867.5,558C 856.631,554.234 845.964,549.901 835.5,545C 826.036,541.571 816.369,540.738 806.5,542.5C 805.548,540.955 805.215,539.288 805.5,537.5C 807.415,537.784 809.081,537.451 810.5,536.5 Z"/></g>
<g><path style="opacity:1" fill="#FFFFFF" d="M 417.5,535.5 C 418.167,537.833 418.833,540.167 419.5,542.5C 419.44,543.043 419.107,543.376 418.5,543.5C 417.52,540.914 417.187,538.247 417.5,535.5 Z"/></g>
<g><path style="opacity:1" fill="#FFFFFF" d="M 780.5,539.5 C 781.827,555.005 781.827,570.672 780.5,586.5C 779.893,586.376 779.56,586.043 779.5,585.5C 780.496,570.342 780.83,555.009 780.5,539.5 Z"/></g>
<g><path style="opacity:1" fill="#FFFFFF" d="M 790.5,540.5 C 790.171,555.676 790.504,570.676 791.5,585.5C 791.44,586.043 791.107,586.376 790.5,586.5C 789.174,571.005 789.174,555.672 790.5,540.5 Z"/></g>
<g><path style="opacity:1" fill="#FFFFFF" d="M 744.5,546.5 C 751.535,546.326 758.535,546.659 765.5,547.5C 765.5,549.167 765.5,550.833 765.5,552.5C 758.523,551.543 751.523,551.377 744.5,552C 732.605,556.076 720.939,560.743 709.5,566C 701.035,568.614 692.368,569.781 683.5,569.5C 683.338,567.473 683.505,565.473 684,563.5C 692.325,565.013 700.492,564.18 708.5,561C 720.274,555.268 732.274,550.435 744.5,546.5 Z"/></g>
<g><path style="opacity:1" fill="#FFFFFF" d="M 806.5,546.5 C 815.635,546.007 824.635,546.84 833.5,549C 845.054,553.943 856.721,558.61 868.5,563C 874.688,564.607 880.855,564.774 887,563.5C 887.495,565.473 887.662,567.473 887.5,569.5C 879.676,569.968 872.009,569.135 864.5,567C 854.719,563.276 845.052,559.276 835.5,555C 825.837,551.566 816.004,550.733 806,552.5C 805.322,550.402 805.489,548.402 806.5,546.5 Z"/></g>
<g><path style="opacity:1" fill="#FFFFFF" d="M 743.5,556.5 C 750.862,556.365 758.196,556.698 765.5,557.5C 765.5,559.167 765.5,560.833 765.5,562.5C 758.528,561.492 751.528,561.325 744.5,562C 731.399,566.716 718.399,571.716 705.5,577C 698.275,578.816 690.941,579.649 683.5,579.5C 683.338,577.473 683.505,575.473 684,573.5C 689.812,574.755 695.645,574.588 701.5,573C 715.7,567.723 729.7,562.223 743.5,556.5 Z"/></g>
<g><path style="opacity:1" fill="#FFFFFF" d="M 807.5,556.5 C 816.315,555.971 824.981,556.804 833.5,559C 845.054,563.943 856.721,568.61 868.5,573C 874.81,574.711 881.143,574.878 887.5,573.5C 887.859,575.766 887.192,577.599 885.5,579C 876.159,580.083 867.159,578.75 858.5,575C 849.331,570.61 839.997,566.61 830.5,563C 822.304,561.367 814.137,561.2 806,562.5C 805.257,560.126 805.757,558.126 807.5,556.5 Z"/></g>
<g><path style="opacity:1" fill="#FFFFFF" d="M 1176.5,554.5 C 1176.81,556.924 1176.47,559.257 1175.5,561.5C 1174.89,561.376 1174.56,561.043 1174.5,560.5C 1175.17,558.5 1175.83,556.5 1176.5,554.5 Z"/></g>
<g><path style="opacity:1" fill="#FFFFFF" d="M 743.5,566.5 C 750.876,566.274 758.209,566.608 765.5,567.5C 765.5,569.167 765.5,570.833 765.5,572.5C 758.536,571.447 751.536,571.28 744.5,572C 732.287,576.106 720.287,580.773 708.5,586C 700.345,588.47 692.012,589.637 683.5,589.5C 683.338,587.473 683.505,585.473 684,583.5C 689.812,584.755 695.645,584.588 701.5,583C 715.537,577.381 729.537,571.881 743.5,566.5 Z"/></g>
<g><path style="opacity:1" fill="#FFFFFF" d="M 805.5,566.5 C 814.213,566.248 822.88,566.748 831.5,568C 842.833,572.667 854.167,577.333 865.5,582C 872.397,584.436 879.397,584.936 886.5,583.5C 887.893,585.674 887.56,587.507 885.5,589C 879.775,589.717 874.109,589.384 868.5,588C 856.505,584.17 844.839,579.503 833.5,574C 824.596,571.431 815.596,570.931 806.5,572.5C 805.534,570.604 805.201,568.604 805.5,566.5 Z"/></g>
<g><path style="opacity:1" fill="#FFFFFF" d="M 1042.5,566.5 C 1042.18,571.695 1042.51,576.695 1043.5,581.5C 1043.44,582.043 1043.11,582.376 1042.5,582.5C 1041.19,577.014 1041.19,571.68 1042.5,566.5 Z"/></g>
<g><path style="opacity:1" fill="#FFFFFF" d="M 549.5,580.5 C 554.796,584.43 560.796,586.264 567.5,586C 571.13,589.762 573.297,594.262 574,599.5C 575.159,620.485 580.492,640.151 590,658.5C 586,655.084 581.5,652.584 576.5,651C 569.907,649.534 563.241,648.534 556.5,648C 551.773,645.467 546.773,643.801 541.5,643C 528.711,642.647 516.044,643.314 503.5,645C 514.139,634.033 523.639,622.2 532,609.5C 532.568,615.194 534.568,616.194 538,612.5C 543.379,605.742 546.546,598.075 547.5,589.5C 548.167,586.5 548.833,583.5 549.5,580.5 Z"/></g>
<g><path style="opacity:1" fill="#FFFFFF" d="M 1021.5,579.5 C 1021.64,593.236 1026.3,605.236 1035.5,615.5C 1036.76,613.547 1037.93,611.547 1039,609.5C 1046.66,622.827 1056.16,634.66 1067.5,645C 1053.9,643.592 1040.23,642.926 1026.5,643C 1021.35,643.91 1016.68,645.91 1012.5,649C 1000.85,647.774 990.352,650.608 981,657.5C 990.021,640.096 995.021,621.43 996,601.5C 996.765,589.73 1002.93,583.897 1014.5,584C 1017.24,582.974 1019.57,581.474 1021.5,579.5 Z"/></g>
<g><path style="opacity:1" fill="#FFFFFF" d="M 602.5,570.5 C 602.666,574.846 602.499,579.179 602,583.5C 600.812,582.437 600.312,581.103 600.5,579.5C 601.167,576.5 601.833,573.5 602.5,570.5 Z"/></g>
<g><path style="opacity:1" fill="#FFFFFF" d="M 750.5,584.5 C 760.205,583.238 769.205,585.071 777.5,590C 767.612,588.542 757.612,588.208 747.5,589C 735.072,593.03 723.072,598.03 711.5,604C 697.737,608.083 684.404,607.083 671.5,601C 670.663,599.989 670.33,598.822 670.5,597.5C 684.914,603.586 699.581,604.086 714.5,599C 726.058,592.709 738.058,587.875 750.5,584.5 Z"/></g>
<g><path style="opacity:1" fill="#FFFFFF" d="M 805.5,584.5 C 814.408,583.922 823.074,585.088 831.5,588C 842.843,592.673 854.177,597.339 865.5,602C 872.5,602.667 879.5,602.667 886.5,602C 891.165,600.389 895.832,598.889 900.5,597.5C 900.67,598.822 900.337,599.989 899.5,601C 885.433,607.255 871.1,607.922 856.5,603C 846.782,598.091 836.782,593.758 826.5,590C 815.438,588.069 804.438,588.069 793.5,590C 797.284,587.471 801.284,585.638 805.5,584.5 Z"/></g>
<g><path style="opacity:1" fill="#FFFFFF" d="M 549.5,580.5 C 548.833,583.5 548.167,586.5 547.5,589.5C 547.335,585.818 547.501,582.152 548,578.5C 548.717,579.044 549.217,579.711 549.5,580.5 Z"/></g>
<g><path style="opacity:1" fill="#FFFFFF" d="M 1171.5,588.5 C 1172.79,603.856 1177.95,617.856 1187,630.5C 1196.78,642.622 1208.12,652.955 1221,661.5C 1221.49,660.207 1221.66,658.873 1221.5,657.5C 1231.49,661.27 1241.82,664.104 1252.5,666C 1254.9,666.814 1257.24,666.647 1259.5,665.5C 1258.96,664.252 1258.29,663.085 1257.5,662C 1266.91,663.686 1276.25,666.02 1285.5,669C 1290.88,670.677 1293.38,674.177 1293,679.5C 1289.83,681.993 1286.16,682.993 1282,682.5C 1274.84,681.779 1267.67,681.112 1260.5,680.5C 1250.73,680.031 1242.73,683.531 1236.5,691C 1218.86,691.977 1209.03,701.143 1207,718.5C 1195.13,706.532 1180.63,700.365 1163.5,700C 1170.22,685.381 1176.56,670.548 1182.5,655.5C 1176.9,646.721 1171.06,638.055 1165,629.5C 1156.03,613.996 1158.19,600.329 1171.5,588.5 Z"/></g>
<g><path style="opacity:1" fill="#FFFFFF" d="M 397.5,588.5 C 411.471,599.279 414.305,612.612 406,628.5C 400.722,636.778 395.055,644.778 389,652.5C 388.833,653.5 388.667,654.5 388.5,655.5C 393.092,667.439 397.592,679.439 402,691.5C 403.247,694.329 404.747,696.995 406.5,699.5C 389.504,700.325 375.004,706.658 363,718.5C 362.651,703.652 355.151,694.818 340.5,692C 338.167,691.667 335.833,691.333 333.5,691C 327.44,683.642 319.607,680.142 310,680.5C 300.538,681.959 291.038,682.459 281.5,682C 275.3,678.865 274.966,675.199 280.5,671C 290.833,666.252 301.5,663.419 312.5,662.5C 311.96,663.748 311.293,664.915 310.5,666C 319.94,665.247 329.273,663.58 338.5,661C 342.062,660.261 345.228,658.761 348,656.5C 348.333,658.167 348.667,659.833 349,661.5C 364.243,652.258 376.91,640.258 387,625.5C 394.057,614.164 397.557,601.831 397.5,588.5 Z"/></g>
<g><path style="opacity:1" fill="#FFFFFF" d="M 752.5,592.5 C 761.409,591.748 769.742,593.581 777.5,598C 778.696,598.654 778.696,599.154 777.5,599.5C 762.549,594.922 747.882,595.756 733.5,602C 723.91,607.963 713.577,611.963 702.5,614C 692.1,615.469 682.1,614.135 672.5,610C 670.579,608.759 670.246,607.259 671.5,605.5C 686.731,611.962 702.064,612.129 717.5,606C 728.5,599.395 740.166,594.895 752.5,592.5 Z"/></g>
<g><path style="opacity:1" fill="#FFFFFF" d="M 806.5,592.5 C 814.688,592.408 822.688,593.574 830.5,596C 841.833,600.667 853.167,605.333 864.5,610C 876.64,611.756 888.307,610.256 899.5,605.5C 900.754,607.259 900.421,608.759 898.5,610C 888.226,614.192 877.56,615.526 866.5,614C 851.62,608.062 836.62,602.395 821.5,597C 811.587,595.976 801.921,596.643 792.5,599C 796.846,595.95 801.513,593.783 806.5,592.5 Z"/></g>
<g><path style="opacity:1" fill="#FFFFFF" d="M 747.5,601.5 C 754.508,601.334 761.508,601.5 768.5,602C 782.079,607.695 781.746,608.695 767.5,605C 761.5,604.333 755.5,604.333 749.5,605C 734.4,610.383 719.4,616.049 704.5,622C 697.5,622.667 690.5,622.667 683.5,622C 679.615,621.261 675.948,619.927 672.5,618C 670.579,616.759 670.246,615.259 671.5,613.5C 685.865,620.976 700.531,621.476 715.5,615C 725.83,609.399 736.497,604.899 747.5,601.5 Z"/></g>
<g><path style="opacity:1" fill="#FFFFFF" d="M 802.5,601.5 C 822.341,600.544 840.674,605.377 857.5,616C 871.869,621.253 885.869,620.42 899.5,613.5C 900.833,614.833 900.833,616.167 899.5,617.5C 888.642,622.12 877.309,623.62 865.5,622C 851.975,616.408 838.308,611.075 824.5,606C 813.633,603.755 802.967,604.088 792.5,607C 795.767,604.87 799.1,603.037 802.5,601.5 Z"/></g>
<g><path style="opacity:1" fill="#FFFFFF" d="M 554.5,655.5 C 564.262,654.603 573.595,656.103 582.5,660C 583.5,661 584.5,662 585.5,663C 575.684,661.058 565.684,660.058 555.5,660C 554.62,658.644 554.286,657.144 554.5,655.5 Z"/></g>
<g><path style="opacity:1" fill="#FFFFFF" d="M 996.5,655.5 C 1003.17,655.5 1009.83,655.5 1016.5,655.5C 1016.7,657.39 1016.04,658.89 1014.5,660C 1008.5,660.333 1002.5,660.667 996.5,661C 992.339,661.165 988.506,662.332 985,664.5C 984.493,663.004 984.993,661.837 986.5,661C 989.767,658.87 993.1,657.037 996.5,655.5 Z"/></g>
<g><path style="opacity:1" fill="#FFFFFF" d="M 550.5,666.5 C 560.121,665.717 569.454,666.883 578.5,670C 583.694,672.267 586.527,676.101 587,681.5C 577.815,675.333 567.649,672.833 556.5,674C 552.399,673.075 550.399,670.575 550.5,666.5 Z"/></g>
<g><path style="opacity:1" fill="#FFFFFF" d="M 1001.5,666.5 C 1007.83,666.5 1014.17,666.5 1020.5,666.5C 1020.26,669.263 1018.92,671.429 1016.5,673C 1008.85,674.041 1001.18,675.041 993.5,676C 989.717,677.058 986.383,678.891 983.5,681.5C 983.326,677.688 984.993,674.521 988.5,672C 992.707,669.66 997.041,667.826 1001.5,666.5 Z"/></g>
<g><path style="opacity:1" fill="#FFFFFF" d="M 547.5,676.5 C 557.461,676.041 566.794,678.207 575.5,683C 578.667,684.833 581.167,687.333 583,690.5C 584.187,692.044 584.52,693.711 584,695.5C 581.094,692.963 577.927,690.796 574.5,689C 565.914,686.567 557.247,684.567 548.5,683C 547.577,680.959 547.244,678.792 547.5,676.5 Z"/></g>
<g><path style="opacity:1" fill="#FFFFFF" d="M 1011.5,676.5 C 1015.18,676.335 1018.85,676.501 1022.5,677C 1023.93,679.267 1023.6,681.267 1021.5,683C 1013.79,684.342 1006.12,686.009 998.5,688C 993.919,689.871 989.752,692.371 986,695.5C 987.095,690.362 989.928,686.195 994.5,683C 1000.02,680.11 1005.69,677.943 1011.5,676.5 Z"/></g>
<g><path style="opacity:1" fill="#FFFFFF" d="M 542.5,688.5 C 552.95,688.696 562.617,691.529 571.5,697C 574.731,699.727 577.397,702.894 579.5,706.5C 579.167,706.833 578.833,707.167 578.5,707.5C 567.463,700.907 555.463,697.74 542.5,698C 539.875,694.763 539.875,691.596 542.5,688.5 Z"/></g>
<g><path style="opacity:1" fill="#FFFFFF" d="M 1018.5,688.5 C 1021.9,688.18 1025.23,688.513 1028.5,689.5C 1030.06,692.614 1029.73,695.447 1027.5,698C 1014.07,697.256 1001.9,700.756 991,708.5C 991.964,704.435 994.13,700.935 997.5,698C 1004.11,693.692 1011.11,690.526 1018.5,688.5 Z"/></g>
<g><path style="opacity:1" fill="#FFFFFF" d="M 325.5,697.5 C 333.177,698.002 340.511,699.835 347.5,703C 350.694,705.149 352.528,707.982 353,711.5C 344.428,705.591 334.928,703.257 324.5,704.5C 324.448,702.097 324.781,699.764 325.5,697.5 Z"/></g>
<g><path style="opacity:1" fill="#FFFFFF" d="M 1239.5,697.5 C 1244.98,696.807 1246.98,698.974 1245.5,704C 1235.72,703.195 1226.72,705.361 1218.5,710.5C 1218.53,706.684 1220.53,703.851 1224.5,702C 1229.39,699.7 1234.39,698.2 1239.5,697.5 Z"/></g>
<g><path style="opacity:1" fill="#FFFFFF" d="M 530.5,704.5 C 542.198,703.383 553.198,705.55 563.5,711C 564.833,712.333 566.167,713.667 567.5,715C 555.964,713.171 544.298,712.171 532.5,712C 529.554,710.047 528.887,707.547 530.5,704.5 Z"/></g>
<g><path style="opacity:1" fill="#FFFFFF" d="M 1021.5,704.5 C 1027.51,704.334 1033.51,704.501 1039.5,705C 1040.98,707.592 1040.65,709.925 1038.5,712C 1026.33,712.003 1014.33,713.003 1002.5,715C 1008.04,709.901 1014.37,706.401 1021.5,704.5 Z"/></g>
<g><path style="opacity:1" fill="#FFFFFF" d="M 649.5,705.5 C 664.614,703.851 678.614,707.018 691.5,715C 705.526,726.924 709.693,741.757 704,759.5C 699.661,770.935 691.494,778.102 679.5,781C 665.705,784.494 654.205,780.994 645,770.5C 639.501,761.317 640.668,753.15 648.5,746C 654.072,742.539 659.406,742.706 664.5,746.5C 658.951,754.99 661.118,760.656 671,763.5C 681.902,760.705 686.568,753.705 685,742.5C 681.443,729.37 672.776,722.703 659,722.5C 652.781,722.513 646.948,724.013 641.5,727C 637.327,730.841 633.493,735.007 630,739.5C 621.277,759.003 612.943,778.67 605,798.5C 592.967,827.847 575.467,853.347 552.5,875C 530.674,893.075 505.674,904.408 477.5,909C 448.136,913.211 422.969,905.044 402,884.5C 386.724,866.969 374.724,847.302 366,825.5C 345.526,793.424 317.693,784.591 282.5,799C 266.377,809.074 257.211,823.574 255,842.5C 247.931,829.371 237.431,820.037 223.5,814.5C 229.098,794.401 241.765,780.901 261.5,774C 296.055,763.206 328.055,768.206 357.5,789C 366.17,796.328 373.337,804.828 379,814.5C 386.315,831.813 395.648,847.813 407,862.5C 430.834,888.002 459.667,896.169 493.5,887C 509.995,882.585 524.995,875.252 538.5,865C 527.758,869.025 516.758,872.692 505.5,876C 457.207,886.19 423.874,868.524 405.5,823C 443.251,834.384 478.251,828.717 510.5,806C 520.768,797.066 529.601,786.9 537,775.5C 543.914,762.671 551.08,750.004 558.5,737.5C 564.915,730.956 572.582,726.456 581.5,724C 591.344,722.829 601.01,721.162 610.5,719C 596.913,735.77 591.413,754.936 594,776.5C 600.307,758.887 607.973,741.887 617,725.5C 625.542,714.826 636.376,708.159 649.5,705.5 Z"/></g>
<g><path style="opacity:1" fill="#FFFFFF" d="M 900.5,705.5 C 925.708,702.158 944.875,711.158 958,732.5C 964.585,746.59 970.585,760.923 976,775.5C 978.669,754.671 973.502,736.005 960.5,719.5C 960.833,719.167 961.167,718.833 961.5,718.5C 970.332,721.124 979.332,722.958 988.5,724C 997.971,726.652 1006.14,731.485 1013,738.5C 1021.32,755.156 1030.66,771.156 1041,786.5C 1073.86,825.284 1114.7,837.284 1163.5,822.5C 1154.33,852.825 1133.99,871.325 1102.5,878C 1085.79,879.778 1069.46,878.111 1053.5,873C 1045.68,869.956 1038.01,866.956 1030.5,864C 1055.09,883.528 1083.09,892.195 1114.5,890C 1137.26,885.707 1155.42,874.207 1169,855.5C 1176.95,843.933 1183.62,831.599 1189,818.5C 1214.18,777.306 1250.68,761.473 1298.5,771C 1322.87,775.881 1338.87,790.048 1346.5,813.5C 1346.17,814.167 1345.83,814.833 1345.5,815.5C 1331.6,820.851 1321.43,830.184 1315,843.5C 1311.69,814.852 1295.85,797.685 1267.5,792C 1240.28,790.529 1219.44,801.362 1205,824.5C 1196.82,844.969 1185.82,863.636 1172,880.5C 1151.25,903.422 1125.41,912.922 1094.5,909C 1047.6,901.308 1011.43,877.475 986,837.5C 982.333,831.167 978.667,824.833 975,818.5C 963.416,793.414 952.416,768.081 942,742.5C 933.036,725.604 919.202,719.437 900.5,724C 884.414,732.467 881.081,744.467 890.5,760C 899.885,765.804 906.219,763.471 909.5,753C 908.822,750.476 907.488,748.309 905.5,746.5C 905.709,745.914 906.043,745.414 906.5,745C 922.461,741.623 929.628,748.123 928,764.5C 924.855,773.332 918.688,778.832 909.5,781C 889.468,784.674 874.968,777.507 866,759.5C 860.778,742.422 864.611,727.922 877.5,716C 884.76,711.366 892.427,707.866 900.5,705.5 Z"/></g>
<g><path style="opacity:1" fill="#FFFFFF" d="M 318.5,709.5 C 330.906,707.359 341.406,710.693 350,719.5C 351.301,721.402 351.968,723.402 352,725.5C 342.385,718.501 331.552,715.001 319.5,715C 318.594,713.301 318.261,711.467 318.5,709.5 Z"/></g>
<g><path style="opacity:1" fill="#FFFFFF" d="M 1235.5,709.5 C 1241.17,709.5 1246.83,709.5 1252.5,709.5C 1252.82,711.722 1252.16,713.556 1250.5,715C 1238.03,714.489 1227.19,718.322 1218,726.5C 1220.33,717.333 1226.17,711.666 1235.5,709.5 Z"/></g>
<g><path style="opacity:1" fill="#FFFFFF" d="M 1047.5,714.5 C 1058.83,715.167 1070.17,715.833 1081.5,716.5C 1069.81,716.832 1058.15,716.499 1046.5,715.5C 1046.62,714.893 1046.96,714.56 1047.5,714.5 Z"/></g>
<g><path style="opacity:1" fill="#FFFFFF" d="M 311.5,719.5 C 323.52,719.116 334.02,722.783 343,730.5C 345.221,733.261 346.554,736.261 347,739.5C 341.983,734.907 336.149,731.74 329.5,730C 322.914,728.321 316.248,727.155 309.5,726.5C 309.394,723.921 310.061,721.588 311.5,719.5 Z"/></g>
<g><path style="opacity:1" fill="#FFFFFF" d="M 1247.5,719.5 C 1251.18,719.335 1254.85,719.501 1258.5,720C 1260.23,721.789 1260.9,723.956 1260.5,726.5C 1246.05,726.227 1233.55,730.893 1223,740.5C 1222.48,738.711 1222.81,737.044 1224,735.5C 1229.81,727.026 1237.64,721.692 1247.5,719.5 Z"/></g>
<g><path style="opacity:1" fill="#FFFFFF" d="M 467.5,737.5 C 471.5,736.833 475.5,736.167 479.5,735.5C 497.13,733.772 514.796,733.272 532.5,734C 533.624,734.249 534.624,734.749 535.5,735.5C 514.191,790.322 474.525,813.156 416.5,804C 390.947,793.39 380.78,774.556 386,747.5C 394.127,729.684 407.96,722.184 427.5,725C 439.592,728.084 446.259,735.751 447.5,748C 447.477,756.683 443.477,762.683 435.5,766C 431.668,766.762 428.002,766.262 424.5,764.5C 423.479,763.998 423.312,763.332 424,762.5C 432.648,755.797 433.481,748.297 426.5,740C 416.639,736.355 408.806,738.855 403,747.5C 398.65,773.765 409.816,785.932 436.5,784C 455.599,780.56 466.099,769.06 468,749.5C 468.762,745.413 468.596,741.413 467.5,737.5 Z"/></g>
<g><path style="opacity:1" fill="#FFFFFF" d="M 1142.5,724.5 C 1169.18,722.353 1183.84,734.52 1186.5,761C 1185.65,777.37 1178.31,790.037 1164.5,799C 1132.37,812.526 1102.03,809.192 1073.5,789C 1055.07,775.557 1042.41,757.89 1035.5,736C 1035.91,735.055 1036.57,734.388 1037.5,734C 1059.53,733.74 1081.53,734.573 1103.5,736.5C 1100.02,752.727 1104.35,766.561 1116.5,778C 1130.72,786.12 1145.05,786.453 1159.5,779C 1169.02,769.787 1171.52,758.954 1167,746.5C 1159.96,738.165 1151.63,736.498 1142,741.5C 1137.5,750.333 1139.34,757.5 1147.5,763C 1136.02,769.024 1127.85,765.858 1123,753.5C 1122.11,738.884 1128.61,729.217 1142.5,724.5 Z"/></g>
<g><path style="opacity:1" fill="#FFFFFF" d="M 298.5,731.5 C 312.485,730.277 324.318,734.61 334,744.5C 335.59,746.65 336.257,748.983 336,751.5C 323.535,743.098 309.701,738.764 294.5,738.5C 294.571,735.348 295.905,733.014 298.5,731.5 Z"/></g>
<g><path style="opacity:1" fill="#FFFFFF" d="M 1259.5,731.5 C 1263.85,731.334 1268.18,731.501 1272.5,732C 1274.41,733.413 1275.75,735.247 1276.5,737.5C 1268.48,738.892 1260.48,740.392 1252.5,742C 1245.77,743.863 1239.77,747.03 1234.5,751.5C 1235.05,746.674 1237.38,742.508 1241.5,739C 1247.29,735.797 1253.29,733.297 1259.5,731.5 Z"/></g>
<g><path style="opacity:1" fill="#FFFFFF" d="M 479.5,735.5 C 475.5,736.167 471.5,736.833 467.5,737.5C 466.957,737.44 466.624,737.107 466.5,736.5C 470.783,735.508 475.116,735.174 479.5,735.5 Z"/></g>
<g><path style="opacity:1" fill="#FFFFFF" d="M 721.5,736.5 C 740.536,738.522 754.203,748.189 762.5,765.5C 777.489,766.666 792.489,766.833 807.5,766C 815.841,747.777 829.841,738.277 849.5,737.5C 841.921,761.595 848.588,780.762 869.5,795C 877.672,797.669 885.172,801.502 892,806.5C 896.462,812.871 897.628,819.871 895.5,827.5C 882.291,821.873 870.458,823.873 860,833.5C 859.005,846.48 855.672,858.814 850,870.5C 848.691,872.976 846.858,874.976 844.5,876.5C 838.407,864.784 828.741,858.617 815.5,858C 807.599,847.433 797.433,839.933 785,835.5C 772.521,839.66 762.687,847.16 755.5,858C 741.881,858.222 732.048,864.388 726,876.5C 719.306,869.447 714.973,861.113 713,851.5C 711.907,845.516 710.907,839.516 710,833.5C 699.552,823.89 687.719,821.89 674.5,827.5C 672.102,817.64 674.768,809.473 682.5,803C 688.299,799.953 694.299,797.286 700.5,795C 721.797,780.65 728.797,761.15 721.5,736.5 Z"/></g>
<g><path style="opacity:1" fill="#FFFFFF" d="M 285.5,744.5 C 293.365,744.366 301.032,745.533 308.5,748C 314.227,750.727 318.227,755.06 320.5,761C 315.621,759.374 310.621,757.707 305.5,756C 297.529,755.002 289.529,754.335 281.5,754C 280.446,752.612 280.28,751.112 281,749.5C 282.193,747.503 283.693,745.836 285.5,744.5 Z"/></g>
<g><path style="opacity:1" fill="#FFFFFF" d="M 1271.5,744.5 C 1275.85,744.334 1280.18,744.501 1284.5,745C 1288.49,746.484 1290.15,749.317 1289.5,753.5C 1281.12,753.816 1272.79,754.649 1264.5,756C 1259.75,757.248 1255.25,759.082 1251,761.5C 1251.75,756.71 1254.25,752.876 1258.5,750C 1262.71,747.66 1267.04,745.826 1271.5,744.5 Z"/></g>
<g><path style="opacity:1" fill="#FFFFFF" d="M 751.5,776.5 C 769.928,775.43 778.595,784.263 777.5,803C 777.351,811.439 775.184,819.273 771,826.5C 763.921,832.977 755.754,834.811 746.5,832C 743.637,830.636 741.637,828.47 740.5,825.5C 740.833,825.167 741.167,824.833 741.5,824.5C 754.794,829.028 762.294,824.361 764,810.5C 764.667,803.5 764.667,796.5 764,789.5C 761.975,784.855 758.475,783.355 753.5,785C 749.506,791.704 749.506,798.371 753.5,805C 762.162,803.768 762.829,805.768 755.5,811C 743.156,812.994 737.49,807.661 738.5,795C 738.804,785.86 743.137,779.693 751.5,776.5 Z"/></g>
<g><path style="opacity:1" fill="#FFFFFF" d="M 794.5,776.5 C 811.301,774.968 819.968,782.634 820.5,799.5C 820.691,808.633 818.857,817.299 815,825.5C 807.883,832.859 799.383,835.026 789.5,832C 786.704,830.581 784.704,828.415 783.5,825.5C 783.833,825.167 784.167,824.833 784.5,824.5C 795.602,828.974 803.102,825.641 807,814.5C 807.667,806.167 807.667,797.833 807,789.5C 805.506,784.784 802.339,783.284 797.5,785C 795.951,786.214 794.785,787.714 794,789.5C 792.932,794.768 793.599,799.768 796,804.5C 798.671,805.348 801.171,805.681 803.5,805.5C 802.699,808.133 801.033,809.967 798.5,811C 787.268,812.44 781.601,807.44 781.5,796C 781.296,786.387 785.63,779.887 794.5,776.5 Z"/></g>
<g><path style="opacity:1" fill="#FFFFFF" d="M 730.5,779.5 C 732.321,794.467 733.154,809.801 733,825.5C 733.45,827.519 734.283,829.352 735.5,831C 729.843,831.499 724.176,831.666 718.5,831.5C 720.356,818.266 721.023,804.933 720.5,791.5C 718.396,791.799 716.396,791.466 714.5,790.5C 716.356,787.81 718.689,785.644 721.5,784C 724.823,782.96 727.823,781.46 730.5,779.5 Z"/></g>
<g><path style="opacity:1" fill="#FFFFFF" d="M 828.5,779.5 C 834.909,779.183 841.243,779.683 847.5,781C 855.806,784.454 858.639,790.62 856,799.5C 855.275,801.949 854.275,804.283 853,806.5C 847.22,811.628 841.386,816.628 835.5,821.5C 842.614,823.172 849.448,822.505 856,819.5C 856.499,823.486 856.666,827.486 856.5,831.5C 845.167,831.5 833.833,831.5 822.5,831.5C 822.203,827.089 823.369,823.089 826,819.5C 831.53,814.057 836.863,808.391 842,802.5C 845.854,791.337 842.021,786.504 830.5,788C 828.376,789.122 826.543,790.622 825,792.5C 824.333,788.833 824.333,785.167 825,781.5C 826.302,780.915 827.469,780.249 828.5,779.5 Z"/></g>
<g><path style="opacity:1" fill="#FFFFFF" d="M 644.5,800.5 C 650.491,799.89 656.157,800.89 661.5,803.5C 653.804,818.998 652.637,834.998 658,851.5C 662.548,867.12 671.381,879.62 684.5,889C 687.719,890.955 691.053,892.288 694.5,893C 681.017,881.541 674.517,867.041 675,849.5C 679.782,840.034 687.282,837.034 697.5,840.5C 697.824,866.682 708.157,887.849 728.5,904C 739.23,910.877 750.896,914.543 763.5,915C 755.734,910.232 748.901,904.399 743,897.5C 734.628,883.58 738.128,874.746 753.5,871C 758.821,881.992 766.655,890.826 777,897.5C 773.866,888.549 770.699,879.549 767.5,870.5C 770.188,862.613 775.522,857.113 783.5,854C 791.801,855.416 797.967,859.916 802,867.5C 802.667,870.5 802.667,873.5 802,876.5C 797.999,883.522 794.999,890.855 793,898.5C 802.633,891.204 810.467,882.37 816.5,872C 831.085,873.318 835.252,880.818 829,894.5C 823.4,903.434 815.9,910.268 806.5,915C 839.389,911.785 860.555,894.285 870,862.5C 871.647,855.93 872.647,849.264 873,842.5C 873.5,841.333 874.333,840.5 875.5,840C 891.209,838.542 898.043,845.709 896,861.5C 891.948,874.449 884.782,885.282 874.5,894C 893.864,886.624 906.364,872.791 912,852.5C 915.599,840.313 916.266,827.979 914,815.5C 912.971,811.111 911.138,807.111 908.5,803.5C 919.209,798.277 928.709,799.943 937,808.5C 943.767,827.654 939.934,844.488 925.5,859C 931.577,856.14 937.91,853.473 944.5,851C 964.669,846.721 981.169,852.555 994,868.5C 1003.61,886.385 1002.11,903.218 989.5,919C 977.961,927.85 965.294,929.85 951.5,925C 939.139,918.964 934.639,909.13 938,895.5C 942.108,886.193 948.942,883.026 958.5,886C 964.579,890.862 965.912,896.695 962.5,903.5C 970.613,904.566 976.113,901.232 979,893.5C 981.787,878.97 975.954,870.47 961.5,868C 951.05,866.042 941.716,868.375 933.5,875C 923.647,883.097 913.98,891.43 904.5,900C 888.691,910.9 871.357,918.567 852.5,923C 838.633,926.15 824.633,928.483 810.5,930C 800.551,932.388 792.051,937.221 785,944.5C 779.777,938.464 773.277,934.298 765.5,932C 748.111,929.157 730.778,925.824 713.5,922C 697.358,917.759 682.358,911.092 668.5,902C 656.262,889.891 642.928,879.225 628.5,870C 617.841,866.166 607.508,866.833 597.5,872C 589.919,879.296 588.419,887.796 593,897.5C 596.886,902.793 602.053,904.96 608.5,904C 605.388,897.9 606.055,892.234 610.5,887C 624.908,882.567 632.574,888.067 633.5,903.5C 633.082,913.829 628.082,920.995 618.5,925C 596.236,931.947 580.736,924.78 572,903.5C 566.948,872.064 580.115,854.064 611.5,849.5C 616.202,849.672 620.868,850.172 625.5,851C 631.61,853.402 637.61,855.735 643.5,858C 630.868,844.254 627.034,828.42 632,810.5C 634.887,805.434 639.054,802.101 644.5,800.5 Z"/></g>
<g><path style="opacity:1" fill="#FFFFFF" d="M 237.5,1010.5 C 250.171,1010.33 262.838,1010.5 275.5,1011C 317.975,1018.11 332.808,1042.27 320,1083.5C 314.78,1093.05 307.28,1100.22 297.5,1105C 317.496,1113.32 327.496,1128.32 327.5,1150C 327.152,1179 313.152,1197.67 285.5,1206C 261.006,1211.13 236.672,1210.46 212.5,1204C 209.302,1203.15 206.469,1201.65 204,1199.5C 203.333,1185.17 203.333,1170.83 204,1156.5C 206.153,1154.56 208.653,1154.06 211.5,1155C 227.371,1180.98 249.038,1187.31 276.5,1174C 284,1164.87 286.833,1154.37 285,1142.5C 281.848,1129.97 273.682,1123.13 260.5,1122C 250.482,1120.88 240.648,1121.71 231,1124.5C 228.425,1124.91 226.758,1123.91 226,1121.5C 226.022,1110.95 226.522,1100.45 227.5,1090C 228.729,1089.22 230.062,1088.72 231.5,1088.5C 246.163,1094.44 260.496,1093.6 274.5,1086C 282.149,1077.24 284.649,1067.08 282,1055.5C 279.779,1046.3 273.945,1041.13 264.5,1040C 243.781,1035.86 228.115,1042.86 217.5,1061C 214.165,1063.29 211.332,1062.79 209,1059.5C 208.185,1046.12 208.352,1032.79 209.5,1019.5C 212.221,1017.47 215.221,1015.97 218.5,1015C 224.965,1013.49 231.298,1011.99 237.5,1010.5 Z"/></g>
<g><path style="opacity:1" fill="#FFFFFF" d="M 601.5,1139.5 C 593.167,1139.5 584.833,1139.5 576.5,1139.5C 576.173,1149.68 576.506,1159.68 577.5,1169.5C 577.369,1175.22 577.869,1180.89 579,1186.5C 581.455,1191.74 583.622,1197.07 585.5,1202.5C 585.61,1204.37 584.944,1205.87 583.5,1207C 565.833,1207.67 548.167,1207.67 530.5,1207C 527.913,1205.47 527.08,1203.31 528,1200.5C 531.75,1194.67 534.084,1188.34 535,1181.5C 536.101,1157.19 536.601,1132.85 536.5,1108.5C 536.601,1084.15 536.101,1059.81 535,1035.5C 533.501,1029.5 531.168,1023.83 528,1018.5C 527.08,1015.69 527.913,1013.53 530.5,1012C 554.167,1011.33 577.833,1011.33 601.5,1012C 648.826,1016.44 668.992,1042.28 662,1089.5C 657.614,1113.55 643.781,1129.05 620.5,1136C 614.322,1138.03 607.988,1139.2 601.5,1139.5 Z"/></g>
<g><path style="opacity:1" fill="#FFFFFF" d="M 666.5,1011.5 C 686.503,1011.33 706.503,1011.5 726.5,1012C 729.207,1013.86 730.041,1016.36 729,1019.5C 722.822,1024.4 720.822,1030.73 723,1038.5C 732.426,1065.28 742.926,1091.61 754.5,1117.5C 765.286,1090.98 774.786,1063.98 783,1036.5C 783.667,1033.5 783.667,1030.5 783,1027.5C 781.423,1024.25 779.423,1021.25 777,1018.5C 776.08,1015.69 776.913,1013.53 779.5,1012C 796.833,1011.33 814.167,1011.33 831.5,1012C 834.203,1013.82 835.036,1016.32 834,1019.5C 826.89,1027.38 821.557,1036.38 818,1046.5C 801.667,1088.83 785.333,1131.17 769,1173.5C 764.452,1184.11 758.285,1193.61 750.5,1202C 737.79,1210.4 724.124,1212.4 709.5,1208C 698.637,1202.12 692.971,1192.95 692.5,1180.5C 692.699,1175.12 695.366,1172.96 700.5,1174C 708.944,1179.51 717.611,1179.84 726.5,1175C 729.498,1172.67 731.498,1169.67 732.5,1166C 713.111,1119.83 692.944,1074 672,1028.5C 669.333,1025.17 666.667,1021.83 664,1018.5C 663.333,1017.17 663.333,1015.83 664,1014.5C 665.045,1013.63 665.878,1012.63 666.5,1011.5 Z"/></g>
<g><path style="opacity:1" fill="#FFFFFF" d="M 851.5,1011.5 C 891.919,1011.01 932.252,1011.51 972.5,1013C 973.472,1025.78 973.972,1038.61 974,1051.5C 972.136,1054.21 969.636,1055.04 966.5,1054C 960.139,1046.82 952.139,1042.82 942.5,1042C 927.504,1041.5 912.504,1041.33 897.5,1041.5C 897.5,1056.17 897.5,1070.83 897.5,1085.5C 915.062,1084.58 932.396,1086.08 949.5,1090C 970.821,1097.67 982.987,1112.84 986,1135.5C 988.835,1153.15 985.502,1169.48 976,1184.5C 966.738,1196.39 954.571,1203.56 939.5,1206C 923.7,1207.11 907.866,1207.61 892,1207.5C 878.5,1207.33 865,1207.17 851.5,1207C 849.522,1204.5 849.022,1201.67 850,1198.5C 854.468,1191.18 856.802,1183.18 857,1174.5C 857.667,1130.83 857.667,1087.17 857,1043.5C 856.983,1035.09 854.65,1027.42 850,1020.5C 849.068,1017.18 849.568,1014.18 851.5,1011.5 Z"/></g>
<g><path style="opacity:1" fill="#FFFFFF" d="M 1007.5,1011.5 C 1024.84,1011.33 1042.17,1011.5 1059.5,1012C 1062.21,1013.86 1063.04,1016.36 1062,1019.5C 1056.18,1028.25 1053.51,1037.91 1054,1048.5C 1053.33,1074.83 1053.33,1101.17 1054,1127.5C 1076.67,1099.5 1099.33,1071.5 1122,1043.5C 1122.97,1035.06 1120.97,1027.39 1116,1020.5C 1115.02,1017.33 1115.52,1014.5 1117.5,1012C 1134.83,1011.33 1152.17,1011.33 1169.5,1012C 1172.2,1013.82 1173.04,1016.32 1172,1019.5C 1167.95,1025.59 1165.62,1032.25 1165,1039.5C 1163.01,1085.17 1163.01,1130.83 1165,1176.5C 1165.01,1184.87 1167.34,1192.54 1172,1199.5C 1172.94,1202.35 1172.44,1204.85 1170.5,1207C 1152.83,1207.67 1135.17,1207.67 1117.5,1207C 1114.91,1205.47 1114.08,1203.31 1115,1200.5C 1119.55,1193.86 1121.88,1186.52 1122,1178.5C 1123.52,1149.52 1123.85,1120.52 1123,1091.5C 1100.33,1119.5 1077.67,1147.5 1055,1175.5C 1054.48,1179.55 1054.82,1183.55 1056,1187.5C 1057.85,1192.52 1059.68,1197.52 1061.5,1202.5C 1061.61,1204.37 1060.94,1205.87 1059.5,1207C 1041.59,1207.83 1023.76,1207.66 1006,1206.5C 1005.13,1205.13 1004.63,1203.63 1004.5,1202C 1005.93,1197.64 1007.76,1193.47 1010,1189.5C 1011,1184.55 1011.66,1179.55 1012,1174.5C 1013.96,1128.83 1013.96,1083.16 1012,1037.5C 1010.2,1030.41 1007.7,1023.57 1004.5,1017C 1004.86,1014.81 1005.86,1012.97 1007.5,1011.5 Z"/></g>
<g><path style="opacity:1" fill="#FFFFFF" d="M 1317.5,1166.5 C 1318.5,1152.01 1318.83,1137.34 1318.5,1122.5C 1294.83,1122.5 1271.17,1122.5 1247.5,1122.5C 1247.17,1138.68 1247.5,1154.68 1248.5,1170.5C 1248.28,1176.23 1248.78,1181.9 1250,1187.5C 1252.05,1192.44 1254.22,1197.27 1256.5,1202C 1256.51,1203.81 1255.84,1205.31 1254.5,1206.5C 1236.54,1207.65 1218.54,1207.82 1200.5,1207C 1199.06,1205.87 1198.39,1204.37 1198.5,1202.5C 1200.04,1197.74 1201.88,1193.08 1204,1188.5C 1204.83,1183.86 1205.5,1179.19 1206,1174.5C 1207.97,1129.17 1207.97,1083.83 1206,1038.5C 1205.08,1031.66 1202.75,1025.33 1199,1019.5C 1197.96,1016.32 1198.8,1013.82 1201.5,1012C 1218.83,1011.33 1236.17,1011.33 1253.5,1012C 1256.09,1013.53 1256.92,1015.69 1256,1018.5C 1252.54,1024.08 1250.21,1030.08 1249,1036.5C 1247.69,1054.47 1247.19,1072.47 1247.5,1090.5C 1271.17,1090.5 1294.83,1090.5 1318.5,1090.5C 1319.02,1070.76 1318.18,1051.1 1316,1031.5C 1314.53,1027.22 1312.53,1023.22 1310,1019.5C 1308.96,1016.36 1309.79,1013.86 1312.5,1012C 1329.83,1011.33 1347.17,1011.33 1364.5,1012C 1367.21,1013.86 1368.04,1016.36 1367,1019.5C 1362.95,1025.59 1360.62,1032.25 1360,1039.5C 1358.04,1085.16 1358.04,1130.83 1360,1176.5C 1360.3,1180.89 1360.97,1185.23 1362,1189.5C 1364.24,1193.47 1366.07,1197.64 1367.5,1202C 1367.39,1203.9 1366.72,1205.56 1365.5,1207C 1347.5,1207.67 1329.5,1207.67 1311.5,1207C 1310.28,1205.56 1309.61,1203.9 1309.5,1202C 1315.62,1191.02 1318.29,1179.18 1317.5,1166.5 Z"/></g>
<g><path style="opacity:1" fill="#FFFFFF" d="M 395.5,1011.5 C 414.836,1011.33 434.17,1011.5 453.5,1012C 454.333,1012.83 455.167,1013.67 456,1014.5C 455.836,1019.15 455.836,1023.82 456,1028.5C 468.925,1072.48 481.592,1116.48 494,1160.5C 496.435,1169.37 499.435,1178.04 503,1186.5C 505.815,1191.98 508.982,1197.15 512.5,1202C 512.516,1204.31 511.516,1205.97 509.5,1207C 490.167,1207.67 470.833,1207.67 451.5,1207C 448.222,1204.71 447.722,1201.88 450,1198.5C 455.259,1195.14 457.426,1190.31 456.5,1184C 455.938,1175.75 454.271,1167.75 451.5,1160C 430.503,1159.5 409.503,1159.33 388.5,1159.5C 386.196,1168.25 384.196,1177.08 382.5,1186C 382.78,1191.73 385.28,1196.23 390,1199.5C 390.944,1202.35 390.444,1204.85 388.5,1207C 370.833,1207.67 353.167,1207.67 335.5,1207C 333.876,1205.88 332.876,1204.38 332.5,1202.5C 336.486,1197.21 339.986,1191.54 343,1185.5C 361.146,1131.75 377.98,1077.58 393.5,1023C 390.435,1018.44 391.102,1014.61 395.5,1011.5 Z"/></g>
<g><path style="opacity:1" fill="#FFFFFF" d="M 576.5,1039.5 C 583.881,1039.31 591.214,1039.81 598.5,1041C 607.94,1042.47 614.44,1047.64 618,1056.5C 620.959,1067.73 621.292,1079.06 619,1090.5C 616.491,1101.68 609.658,1108.51 598.5,1111C 591.221,1112.25 583.888,1112.75 576.5,1112.5C 576.5,1088.17 576.5,1063.83 576.5,1039.5 Z"/></g>
<g><path style="opacity:1" fill="#FFFFFF" d="M 419.5,1048.5 C 428.098,1076.21 436.098,1104.21 443.5,1132.5C 427.833,1132.5 412.167,1132.5 396.5,1132.5C 403.852,1104.43 411.518,1076.43 419.5,1048.5 Z"/></g>
<g><path style="opacity:1" fill="#FFFFFF" d="M 897.5,1114.5 C 932.782,1110.28 947.949,1125.61 943,1160.5C 939.382,1172.57 931.216,1178.74 918.5,1179C 911.508,1179.5 904.508,1179.67 897.5,1179.5C 897.5,1157.83 897.5,1136.17 897.5,1114.5 Z"/></g>
<g><path style="opacity:1" fill="#FFFFFF" d="M 1317.5,1166.5 C 1317.5,1152.17 1317.5,1137.83 1317.5,1123.5C 1294.5,1123.5 1271.5,1123.5 1248.5,1123.5C 1248.5,1139.17 1248.5,1154.83 1248.5,1170.5C 1247.5,1154.68 1247.17,1138.68 1247.5,1122.5C 1271.17,1122.5 1294.83,1122.5 1318.5,1122.5C 1318.83,1137.34 1318.5,1152.01 1317.5,1166.5 Z"/></g>
<g><path style="opacity:1" fill="#FFFFFF" d="M 601.5,1139.5 C 593.684,1140.49 585.684,1140.83 577.5,1140.5C 577.5,1150.17 577.5,1159.83 577.5,1169.5C 576.506,1159.68 576.173,1149.68 576.5,1139.5C 584.833,1139.5 593.167,1139.5 601.5,1139.5 Z"/></g>
<g><path style="opacity:1" fill="#FFFFFF" d="M 765.5,1279.5 C 790.494,1280.79 815.494,1280.79 840.5,1279.5C 841.294,1289.18 841.294,1298.85 840.5,1308.5C 833.767,1299.58 824.767,1295.92 813.5,1297.5C 813.333,1322.17 813.5,1346.84 814,1371.5C 814.913,1377.33 817.413,1382.33 821.5,1386.5C 809.167,1387.83 796.833,1387.83 784.5,1386.5C 788.06,1382.05 790.56,1377.05 792,1371.5C 792.5,1346.84 792.667,1322.17 792.5,1297.5C 781.072,1295.52 772.072,1299.19 765.5,1308.5C 764.636,1298.85 764.636,1289.18 765.5,1279.5 Z"/></g>
<g><path style="opacity:1" fill="#FFFFFF" d="M 1019.5,1279.5 C 1022.5,1279.5 1025.5,1279.5 1028.5,1279.5C 1028.9,1287.68 1029.56,1295.85 1030.5,1304C 1030.17,1305.5 1029.83,1307 1029.5,1308.5C 1026.13,1303.3 1021.47,1299.8 1015.5,1298C 1007.17,1297.5 998.84,1297.33 990.5,1297.5C 990.5,1305.5 990.5,1313.5 990.5,1321.5C 1001.21,1321.76 1011.87,1321.43 1022.5,1320.5C 1021.05,1329.87 1019.38,1339.21 1017.5,1348.5C 1015.64,1344.96 1012.97,1342.12 1009.5,1340C 1003.24,1338.68 996.909,1338.18 990.5,1338.5C 990.5,1349.17 990.5,1359.83 990.5,1370.5C 998.174,1370.67 1005.84,1370.5 1013.5,1370C 1021.22,1367.56 1027.38,1363.06 1032,1356.5C 1032.69,1357.03 1033.19,1357.69 1033.5,1358.5C 1032.17,1368.17 1030.83,1377.83 1029.5,1387.5C 1028.5,1387.83 1027.5,1388.17 1026.5,1388.5C 1005.18,1387.87 983.842,1387.2 962.5,1386.5C 966.497,1381.19 968.664,1375.19 969,1368.5C 969.667,1344.17 969.667,1319.83 969,1295.5C 967.336,1290.18 965.17,1285.18 962.5,1280.5C 981.674,1280.83 1000.67,1280.5 1019.5,1279.5 Z"/></g>
<g><path style="opacity:1" fill="#FFFFFF" d="M 325.5,1280.5 C 337.518,1280.17 349.518,1280.5 361.5,1281.5C 357.994,1285.51 355.827,1290.18 355,1295.5C 354.439,1313.84 354.105,1332.18 354,1350.5C 364.158,1330.18 374.824,1310.18 386,1290.5C 387.352,1287.28 388.186,1283.95 388.5,1280.5C 399.52,1280.17 410.52,1280.5 421.5,1281.5C 417.699,1285.43 415.199,1290.1 414,1295.5C 413.333,1321.17 413.333,1346.83 414,1372.5C 414.827,1377.82 416.994,1382.49 420.5,1386.5C 408.5,1387.83 396.5,1387.83 384.5,1386.5C 388.828,1381.7 391.328,1376.03 392,1369.5C 392.389,1351.79 392.722,1334.13 393,1316.5C 380.667,1339.83 368.333,1363.17 356,1386.5C 346.227,1387.82 336.394,1387.82 326.5,1386.5C 330.339,1381.49 332.505,1375.82 333,1369.5C 333.667,1345.17 333.667,1320.83 333,1296.5C 331.811,1290.46 329.311,1285.13 325.5,1280.5 Z"/></g>
<g><path style="opacity:1" fill="#FFFFFF" d="M 471.5,1280.5 C 500.508,1280.17 529.508,1280.5 558.5,1281.5C 555.6,1285.36 553.767,1289.69 553,1294.5C 552.333,1320.17 552.333,1345.83 553,1371.5C 553.912,1377.08 556.079,1382.08 559.5,1386.5C 547.833,1387.83 536.167,1387.83 524.5,1386.5C 527.715,1382.37 529.882,1377.7 531,1372.5C 531.5,1347.5 531.667,1322.5 531.5,1297.5C 520.5,1297.5 509.5,1297.5 498.5,1297.5C 498.333,1322.5 498.5,1347.5 499,1372.5C 499.827,1377.82 501.994,1382.49 505.5,1386.5C 493.833,1387.83 482.167,1387.83 470.5,1386.5C 472.587,1383.33 474.421,1379.99 476,1376.5C 477.594,1349.19 477.928,1321.86 477,1294.5C 476.587,1291.77 475.92,1289.1 475,1286.5C 473.558,1284.61 472.391,1282.61 471.5,1280.5 Z"/></g>
<g><path style="opacity:1" fill="#FFFFFF" d="M 599.5,1280.5 C 612.167,1280.5 624.833,1280.5 637.5,1280.5C 637.392,1282.78 636.559,1284.78 635,1286.5C 634.333,1290.17 634.333,1293.83 635,1297.5C 642.333,1320.17 649.667,1342.83 657,1365.5C 659.643,1373.46 663.809,1380.46 669.5,1386.5C 658.52,1387.5 647.52,1387.83 636.5,1387.5C 638.057,1380.4 637.723,1373.4 635.5,1366.5C 623.833,1365.17 612.167,1365.17 600.5,1366.5C 597.176,1373.06 596.843,1379.73 599.5,1386.5C 589.167,1387.83 578.833,1387.83 568.5,1386.5C 573.946,1379.95 578.112,1372.61 581,1364.5C 588.988,1340.54 596.154,1316.37 602.5,1292C 602.52,1287.88 601.52,1284.05 599.5,1280.5 Z"/></g>
<g><path style="opacity:1" fill="#FFFFFF" d="M 678.5,1280.5 C 694.17,1280.33 709.837,1280.5 725.5,1281C 738.265,1283.13 746.765,1290.3 751,1302.5C 757.336,1338 742.503,1355 706.5,1353.5C 704.896,1365.41 707.229,1376.41 713.5,1386.5C 701.833,1387.83 690.167,1387.83 678.5,1386.5C 682.006,1382.49 684.173,1377.82 685,1372.5C 685.667,1346.5 685.667,1320.5 685,1294.5C 683.609,1289.39 681.442,1284.72 678.5,1280.5 Z"/></g>
<g><path style="opacity:1" fill="#FFFFFF" d="M 885.5,1296.5 C 884.507,1304.98 884.174,1313.65 884.5,1322.5C 896.345,1322.83 908.012,1322.49 919.5,1321.5C 919.666,1312.83 919.5,1304.16 919,1295.5C 918.173,1290.18 916.006,1285.51 912.5,1281.5C 924.167,1280.17 935.833,1280.17 947.5,1281.5C 944.279,1285.28 942.112,1289.61 941,1294.5C 940.333,1320.5 940.333,1346.5 941,1372.5C 941.827,1377.82 943.994,1382.49 947.5,1386.5C 935.833,1387.83 924.167,1387.83 912.5,1386.5C 915.718,1382.36 917.884,1377.69 919,1372.5C 919.5,1361.51 919.667,1350.51 919.5,1339.5C 907.833,1339.5 896.167,1339.5 884.5,1339.5C 884.334,1349.51 884.5,1359.51 885,1369.5C 885.495,1375.82 887.661,1381.49 891.5,1386.5C 879.833,1387.83 868.167,1387.83 856.5,1386.5C 860.006,1382.49 862.173,1377.82 863,1372.5C 863.667,1346.5 863.667,1320.5 863,1294.5C 861.893,1289.62 859.726,1285.29 856.5,1281.5C 868.167,1280.17 879.833,1280.17 891.5,1281.5C 888.105,1285.95 886.105,1290.95 885.5,1296.5 Z"/></g>
<g><path style="opacity:1" fill="#FFFFFF" d="M 1044.5,1280.5 C 1060.5,1280.33 1076.5,1280.5 1092.5,1281C 1107,1284.17 1115.83,1293 1119,1307.5C 1121.83,1340.5 1106.67,1355.83 1073.5,1353.5C 1073.33,1360.17 1073.5,1366.84 1074,1373.5C 1075.11,1378.39 1077.28,1382.72 1080.5,1386.5C 1068.5,1387.83 1056.5,1387.83 1044.5,1386.5C 1047.69,1383.46 1049.85,1379.79 1051,1375.5C 1052.1,1361.2 1052.6,1346.87 1052.5,1332.5C 1052.33,1320.5 1052.17,1308.5 1052,1296.5C 1050.81,1290.46 1048.31,1285.13 1044.5,1280.5 Z"/></g>
<g><path style="opacity:1" fill="#FFFFFF" d="M 1129.5,1280.5 C 1141.52,1280.17 1153.52,1280.5 1165.5,1281.5C 1161.38,1286.02 1158.88,1291.35 1158,1297.5C 1157.5,1303.82 1157.33,1310.16 1157.5,1316.5C 1169.93,1314.86 1181.6,1317.03 1192.5,1323C 1205.99,1335.5 1209.16,1350.33 1202,1367.5C 1197.59,1378.12 1189.76,1384.62 1178.5,1387C 1162.16,1387.83 1145.82,1387.67 1129.5,1386.5C 1132.72,1382.72 1134.89,1378.39 1136,1373.5C 1136.67,1346.83 1136.67,1320.17 1136,1293.5C 1134.33,1288.83 1132.17,1284.5 1129.5,1280.5 Z"/></g>
<g><path style="opacity:1" fill="#FFFFFF" d="M 1208.5,1280.5 C 1220.52,1280.17 1232.52,1280.5 1244.5,1281.5C 1241.27,1285.29 1239.11,1289.62 1238,1294.5C 1237.33,1320.83 1237.33,1347.17 1238,1373.5C 1239.11,1378.39 1241.28,1382.72 1244.5,1386.5C 1232.5,1387.83 1220.5,1387.83 1208.5,1386.5C 1212.01,1382.49 1214.17,1377.82 1215,1372.5C 1215.67,1346.17 1215.67,1319.83 1215,1293.5C 1213.45,1288.8 1211.28,1284.47 1208.5,1280.5 Z"/></g>
<g><path style="opacity:1" fill="#FFFFFF" d="M 706.5,1297.5 C 727.022,1295.87 734.855,1305.2 730,1325.5C 728.6,1328.9 726.433,1331.74 723.5,1334C 717.912,1335.29 712.245,1335.79 706.5,1335.5C 706.5,1322.83 706.5,1310.17 706.5,1297.5 Z"/></g>
<g><path style="opacity:1" fill="#FFFFFF" d="M 1073.5,1297.5 C 1094.33,1296.43 1101.83,1306.1 1096,1326.5C 1094.4,1331.1 1091.24,1333.93 1086.5,1335C 1082.18,1335.5 1077.85,1335.67 1073.5,1335.5C 1073.5,1322.83 1073.5,1310.17 1073.5,1297.5 Z"/></g>
<g><path style="opacity:1" fill="#FFFFFF" d="M 617.5,1308.5 C 621.666,1321.67 625.666,1335.01 629.5,1348.5C 621.833,1348.5 614.167,1348.5 606.5,1348.5C 610.478,1335.26 614.144,1321.92 617.5,1308.5 Z"/></g>
<g><path style="opacity:1" fill="#FFFFFF" d="M 885.5,1296.5 C 885.5,1304.83 885.5,1313.17 885.5,1321.5C 896.833,1321.5 908.167,1321.5 919.5,1321.5C 908.012,1322.49 896.345,1322.83 884.5,1322.5C 884.174,1313.65 884.507,1304.98 885.5,1296.5 Z"/></g>
<g><path style="opacity:1" fill="#FFFFFF" d="M 1157.5,1333.5 C 1178.19,1331.35 1186.36,1340.35 1182,1360.5C 1179.97,1365.87 1176.13,1369.03 1170.5,1370C 1166.18,1370.5 1161.85,1370.67 1157.5,1370.5C 1157.5,1358.17 1157.5,1345.83 1157.5,1333.5 Z"/></g>
</svg>
